<svg width="142" height="42" viewBox="0 0 142 42" xmlns="http://www.w3.org/2000/svg"><title>Artboard</title><g fill="none" fill-rule="evenodd"><path d="M6.276 1.406h129.798a4.627 4.627 0 0 1 4.614 4.614v30.142a4.627 4.627 0 0 1-4.614 4.614H6.276a4.627 4.627 0 0 1-4.614-4.614V6.02a4.627 4.627 0 0 1 4.614-4.614zm2.175 4.84h125.448c.713 0 1.362.293 1.832.764h.002c.47.47.763 1.12.763 1.835v24.492a2.59 2.59 0 0 1-.763 1.836h-.002c-.47.47-1.119.762-1.832.762H8.45a2.589 2.589 0 0 1-1.833-.762h-.002a2.592 2.592 0 0 1-.762-1.836V8.845c0-.715.292-1.365.762-1.835h.002a2.59 2.59 0 0 1 1.833-.763zm125.448 1H8.45c-.44 0-.84.18-1.13.469h.001c-.29.29-.47.69-.47 1.13v24.492c0 .44.18.84.47 1.13H7.32c.29.29.69.47 1.13.47h125.448c.44 0 .84-.18 1.13-.47h-.001c.29-.29.47-.69.47-1.13V8.845c0-.44-.18-.84-.47-1.13-.29-.29-.689-.47-1.13-.47z" fill="#0983BC"/><path d="M34.179 29.609l-1.456 2.235c-1.342-.119-2.338-.4-2.993-.833-.844-.563-1.266-1.456-1.266-2.674v-5.066c-.569.32-1.5.628-2.81.936-1.282.298-2.213.623-2.787.958-.579.342-.866.953-.866 1.84 0 1.706 1.148 2.593 3.443 2.663.822-.065 1.65-.205 2.473-.422L26 31.655c-.66.08-1.202.124-1.63.124-2.267 0-3.896-.741-4.892-2.23a3.905 3.905 0 0 1-.687-2.218c0-1.749.963-3.059 2.884-3.93.558-.25 1.364-.498 2.42-.741l2.505-.569c1.219-.281 1.83-.925 1.83-1.938 0-.665-.374-1.173-1.115-1.526-.59-.28-2.333-.576-3.074-.576-1.3 0-2.76.422-4.384 1.266l2.138-3.247c.243 0 .606-.03 1.087-.092.488-.063.85-.098 1.094-.098 2.5 0 5.364.864 6.435 2.287.558.741.84 1.683.84 2.831v5.65c0 1.029.2 1.76.6 2.198.395.438 1.11.693 2.127.763zm10.072-10.462c-.297-.39-.839-.585-1.629-.585-.449 0-.893.066-1.331.195-1.364.417-2.046 1.792-2.046 4.124v5.78c0 1.278.422 2.15 1.272 2.604v.125H35.06v-.125c.796-.411 1.196-1.256 1.196-2.538v-9.32c0-.78-.049-1.332-.151-1.646-.157-.503-.503-.91-1.045-1.217v-.125h.839c.146 0 .341-.005.59-.016l.752-.033c.266-.01.59-.027.964-.043.411-.049.714-.146.914-.292h.125v2.43c.487-.947 1.185-1.597 2.095-1.96.698-.276 1.667-.41 2.911-.41v3.052zM71.335 31.39h-5.65v-.125c.844-.454 1.266-1.364 1.266-2.728v-5c0-3.616-1.245-5.413-3.735-5.391-1.423.01-2.43.514-3.004 1.515-.444.768-.647 1.933-.665 3.486l-.065 5.39c.092 1.418.536 2.328 1.331 2.728v.125h-5.45v-.125c.844-.547 1.266-1.369 1.266-2.473v-5.52c0-1.928-.508-3.362-1.531-4.31-.569-.53-1.283-.8-2.138-.816-1.224-.022-2.165.362-2.83 1.158-.623.736-.937 1.72-.937 2.96v6.338c0 1.359.4 2.246 1.196 2.663v.125h-5.39v-.125c.865-.46 1.298-1.115 1.298-1.954v-10.23c0-1.255-.433-2.1-1.299-2.537v-.125c.98 0 1.64.022 1.981.065 1.072-.06 1.781-.206 2.143-.45h.07v2.528c1.056-1.705 2.626-2.549 4.71-2.527 2.148.021 3.81.952 4.995 2.787 1.261-1.83 2.901-2.76 4.91-2.787 2.218-.033 3.81.53 4.762 1.678.871 1.05 1.31 2.706 1.31 4.974v6.3c0 1.212.487 1.97 1.456 2.278v.125zm13.152-4.709c0 2.219-1.283 3.74-3.854 4.568-1.104.352-2.224.53-3.355.53-1.57 0-3.01-.26-4.32-.78l-1.07-3.144c.816.552 1.763.985 2.84 1.3 1.175.34 2.214.513 3.107.513.861 0 1.618-.124 2.268-.373.893-.341 1.37-.866 1.434-1.575 0-1.061-.871-1.894-2.614-2.517-.45-.157-1.326-.465-2.62-.925-1.06-.385-1.948-.899-2.657-1.543-.628-.579-.942-1.374-.942-2.387 0-2.002 1.132-3.312 3.394-3.918a11.99 11.99 0 0 1 3.134-.395c1.401 0 2.57.13 3.502.39v2.787c-1.18-.671-2.555-1.007-4.125-1.007-1.948 0-2.922.552-2.922 1.656.092.715.822 1.289 2.203 1.732a53.08 53.08 0 0 1 4.07 1.478c1.683.693 2.527 1.9 2.527 3.61zm17.764-2.885c0 2.268-.845 4.173-2.539 5.726-1.645 1.505-3.615 2.257-5.905 2.257-2.549 0-4.584-.8-6.11-2.403-1.456-1.52-2.17-3.328-2.144-5.423.038-2.982 1.316-5.223 3.832-6.722 1.305-.774 2.885-1.175 4.747-1.196a8.321 8.321 0 0 1 4.005.957c1.294.672 2.3 1.603 3.02 2.783.73 1.201 1.094 2.543 1.094 4.021zm-3.345.482c0-1.64-.46-3.058-1.38-4.249-1.002-1.288-2.263-1.916-3.79-1.883-1.725.037-3.068.774-4.031 2.202-.547.818-.828 1.884-.84 3.189-.01 1.542.418 2.922 1.278 4.134.953 1.343 2.17 2.03 3.664 2.062a.772.772 0 0 1 .255-.065c2.1-.07 3.54-1 4.319-2.798a6.348 6.348 0 0 0 .525-2.592zm15.09-14.781l-2.236 2.479a3.8 3.8 0 0 0-1.889-.493c-1.407 0-2.11.866-2.11 2.598v2.338h3.734l.59-.195h.124v2.863h-.124c-.206-.352-.693-.525-1.472-.525h-2.853v8.644c0 1.575.162 2.647.482 3.226.206.357.509.655.915.893v.065h-5.58v-.125c.795-.4 1.196-1.158 1.196-2.278V18.562h-1.554l1.554-2.143V14.27c0-2.078 1.201-3.54 3.599-4.367a9.487 9.487 0 0 1 3.09-.531c.482 0 1.327.043 2.533.125zm8.546 19.847l-1.722 2.306c-.308.043-.752.065-1.331.065-1.456 0-2.55-.51-3.285-1.532-.65-.893-.975-2.09-.975-3.6v-8.02h-2.202v-1.197c2.576-.357 3.864-2.273 3.864-5.748h1.266v4.8h2.404c1.017 0 1.656-.064 1.916-.194h.065v2.988h-.065c-.368-.433-.985-.65-1.851-.65h-2.469v6.69c0 2.084.445 3.415 1.332 3.994.325.217.855.352 1.591.423.682-.087 1.17-.2 1.462-.325z" fill="#FEFEFE" fill-rule="nonzero"/></g></svg>