<?xml version="1.0" encoding="UTF-8"?>
<svg width="567px" height="94px" viewBox="0 0 567 94" version="1.1" xmlns="http://www.w3.org/2000/svg" xmlns:xlink="http://www.w3.org/1999/xlink">
    <!-- Generator: Sketch 49.3 (51167) - http://www.bohemiancoding.com/sketch -->
    <title>Artboard</title>
    <desc>Created with Sketch.</desc>
    <defs></defs>
    <g id="Artboard" stroke="none" stroke-width="1" fill="none" fill-rule="evenodd">
        <g id="Group" transform="translate(4.000000, 6.000000)">
            <path d="M201.643,0.71 L259.055,0.71 C265.603,0.71 270.958,6.066 270.958,12.616 L270.958,70.028 C270.958,76.578 265.603,81.93 259.055,81.93 L201.643,81.93 C195.094,81.93 189.737,76.578 189.737,70.028 L189.737,12.616 C189.737,6.066 195.094,0.71 201.643,0.71" id="Fill-1" fill="#7784B4"></path>
            <path d="M296.356,0.71 L353.764,0.71 C360.314,0.71 365.671,6.066 365.671,12.616 L365.671,70.028 C365.671,76.578 360.314,81.93 353.764,81.93 L296.356,81.93 C289.806,81.93 284.45,76.578 284.45,70.028 L284.45,12.616 C284.45,6.066 289.806,0.71 296.356,0.71" id="Fill-2" fill="#F3C131"></path>
            <path d="M392.124,0.71 L449.535,0.71 C456.083,0.71 461.439,6.066 461.439,12.616 L461.439,70.028 C461.439,76.578 456.083,81.93 449.535,81.93 L392.124,81.93 C385.575,81.93 380.218,76.578 380.218,70.028 L380.218,12.616 C380.218,6.066 385.575,0.71 392.124,0.71" id="Fill-3" fill="#85CADD"></path>
            <path d="M487.363,0.71 L544.772,0.71 C551.322,0.71 556.679,6.066 556.679,12.616 L556.679,70.028 C556.679,76.578 551.322,81.93 544.772,81.93 L487.363,81.93 C480.814,81.93 475.457,76.578 475.457,70.028 L475.457,12.616 C475.457,6.066 480.814,0.71 487.363,0.71" id="Fill-4" fill="#E7792B"></path>
            <path d="M262.277,61.193 C262.277,61.502 262.202,61.761 262.016,61.992 C261.832,62.205 261.54,62.407 261.112,62.544 C260.695,62.696 260.127,62.807 259.404,62.882 C258.682,62.959 257.76,63.005 256.653,63.005 C255.518,63.005 254.582,62.959 253.875,62.882 C253.152,62.807 252.569,62.696 252.139,62.544 C251.694,62.407 251.402,62.205 251.233,61.992 C251.065,61.761 250.986,61.502 250.986,61.193 L250.986,37.4 C250.986,36.046 250.864,34.818 250.601,33.696 C250.358,32.588 249.958,31.636 249.436,30.838 C248.914,30.054 248.253,29.442 247.454,28.995 C246.655,28.564 245.704,28.348 244.598,28.348 C243.245,28.348 241.877,28.874 240.496,29.917 C239.13,30.977 237.623,32.499 235.995,34.509 L235.995,61.193 C235.995,61.502 235.918,61.761 235.734,61.992 C235.548,62.205 235.241,62.407 234.811,62.544 C234.366,62.696 233.796,62.807 233.075,62.882 C232.354,62.959 231.462,63.005 230.372,63.005 C229.264,63.005 228.345,62.959 227.637,62.882 C226.917,62.807 226.332,62.696 225.902,62.544 C225.455,62.407 225.15,62.205 224.98,61.992 C224.795,61.761 224.702,61.502 224.702,61.193 L224.702,37.4 C224.702,36.046 224.583,34.818 224.32,33.696 C224.075,32.588 223.691,31.636 223.169,30.838 C222.662,30.054 222,29.442 221.201,28.995 C220.386,28.564 219.437,28.348 218.359,28.348 C216.977,28.348 215.596,28.874 214.211,29.917 C212.845,30.977 211.355,32.499 209.759,34.509 L209.759,61.193 C209.759,61.502 209.68,61.761 209.496,61.992 C209.312,62.205 209.004,62.407 208.575,62.544 C208.13,62.696 207.561,62.807 206.838,62.882 C206.116,62.959 205.211,63.005 204.088,63.005 C202.984,63.005 202.06,62.959 201.354,62.882 C200.632,62.807 200.049,62.696 199.618,62.544 C199.173,62.407 198.866,62.205 198.696,61.992 C198.514,61.761 198.421,61.502 198.421,61.193 L198.421,21.054 C198.421,20.763 198.496,20.484 198.65,20.271 C198.804,20.038 199.067,19.854 199.465,19.7 C199.85,19.547 200.357,19.441 200.971,19.365 C201.584,19.286 202.351,19.255 203.29,19.255 C204.242,19.255 205.041,19.286 205.67,19.365 C206.299,19.441 206.791,19.547 207.129,19.7 C207.483,19.854 207.73,20.038 207.867,20.271 C208.021,20.484 208.098,20.763 208.098,21.054 L208.098,25.692 C210.327,23.295 212.538,21.483 214.734,20.285 C216.946,19.088 219.249,18.487 221.648,18.487 C223.291,18.487 224.779,18.657 226.1,19.009 C227.423,19.348 228.606,19.839 229.634,20.484 C230.662,21.131 231.555,21.914 232.306,22.806 C233.058,23.71 233.692,24.709 234.195,25.83 C235.396,24.541 236.578,23.418 237.729,22.498 C238.881,21.559 240.035,20.807 241.155,20.224 C242.276,19.64 243.398,19.211 244.535,18.918 C245.657,18.627 246.807,18.487 247.976,18.487 C250.648,18.487 252.893,18.934 254.718,19.839 C256.55,20.746 258.039,21.958 259.159,23.511 C260.28,25.047 261.081,26.859 261.57,28.936 C262.048,31.01 262.277,33.19 262.277,35.508 L262.277,61.193" id="Fill-5" fill="#FFFFFE"></path>
            <path d="M336.842,38.114 C336.842,36.41 336.718,34.764 336.472,33.196 C336.212,31.616 335.78,30.218 335.167,28.988 C334.552,27.758 333.739,26.775 332.724,26.039 C331.726,25.299 330.464,24.931 328.975,24.931 C328.223,24.931 327.487,25.042 326.748,25.27 C326.013,25.502 325.256,25.87 324.489,26.375 C323.72,26.885 322.936,27.544 322.123,28.359 C321.325,29.157 320.462,30.17 319.557,31.369 L319.557,44.598 C321.153,46.611 322.677,48.162 324.105,49.255 C325.551,50.357 327.054,50.893 328.606,50.893 C330.082,50.893 331.343,50.526 332.369,49.777 C333.401,49.02 334.243,48.038 334.907,46.825 C335.566,45.612 336.059,44.242 336.381,42.707 C336.688,41.186 336.842,39.65 336.842,38.114 Z M348.641,37.316 C348.641,40.88 348.259,44.105 347.487,46.961 C346.719,49.835 345.613,52.266 344.138,54.275 C342.664,56.288 340.837,57.838 338.654,58.917 C336.46,59.993 333.954,60.529 331.123,60.529 C329.961,60.529 328.882,60.42 327.916,60.191 C326.932,59.975 325.996,59.621 325.074,59.16 C324.167,58.7 323.259,58.116 322.353,57.426 C321.449,56.736 320.525,55.934 319.557,54.999 L319.557,73.896 C319.557,74.203 319.481,74.478 319.297,74.709 C319.114,74.955 318.807,75.156 318.374,75.321 C317.93,75.489 317.359,75.615 316.639,75.706 C315.918,75.799 315.011,75.831 313.888,75.831 C312.784,75.831 311.863,75.799 311.155,75.706 C310.433,75.615 309.849,75.489 309.418,75.321 C308.973,75.156 308.667,74.955 308.497,74.709 C308.311,74.478 308.221,74.203 308.221,73.896 L308.221,17.821 C308.221,17.528 308.299,17.25 308.451,17.036 C308.605,16.805 308.865,16.619 309.234,16.467 C309.602,16.312 310.109,16.207 310.724,16.132 C311.339,16.053 312.106,16.021 313.043,16.021 C313.936,16.021 314.705,16.053 315.32,16.132 C315.935,16.207 316.427,16.312 316.791,16.467 C317.179,16.619 317.438,16.805 317.592,17.036 C317.729,17.25 317.807,17.528 317.807,17.821 L317.807,22.55 C318.976,21.352 320.128,20.293 321.246,19.37 C322.386,18.466 323.521,17.696 324.69,17.083 C325.871,16.467 327.072,16.004 328.316,15.697 C329.56,15.406 330.895,15.252 332.307,15.252 C335.242,15.252 337.748,15.839 339.821,16.99 C341.895,18.142 343.57,19.722 344.875,21.736 C346.181,23.748 347.134,26.083 347.733,28.758 C348.334,31.43 348.641,34.272 348.641,37.316 Z" id="Fill-6" fill="#FFFFFE"></path>
            <path d="M426.496,70.976 C426.496,71.283 426.421,71.543 426.236,71.776 C426.051,71.991 425.745,72.189 425.314,72.325 C424.867,72.479 424.3,72.588 423.579,72.664 C422.854,72.742 421.95,72.786 420.827,72.786 C419.721,72.786 418.801,72.742 418.095,72.664 C417.371,72.588 416.79,72.479 416.357,72.325 C415.91,72.189 415.603,71.991 415.435,71.776 C415.249,71.543 415.16,71.283 415.16,70.976 L415.16,11.796 C415.16,11.489 415.249,11.225 415.435,10.983 C415.603,10.738 415.91,10.534 416.357,10.382 C416.79,10.217 417.371,10.091 418.095,9.998 C418.801,9.907 419.721,9.861 420.827,9.861 C421.95,9.861 422.854,9.907 423.579,9.998 C424.3,10.091 424.867,10.217 425.314,10.382 C425.745,10.534 426.051,10.738 426.236,10.983 C426.421,11.225 426.496,11.489 426.496,11.796 L426.496,70.976" id="Fill-7" fill="#FFFFFE"></path>
            <path d="M523.191,59.5 L518.321,73.726 C518.058,74.478 517.323,75.014 516.122,75.34 C514.926,75.679 513.156,75.831 510.854,75.831 C509.655,75.831 508.686,75.784 507.98,75.679 C507.26,75.568 506.72,75.402 506.352,75.169 C505.998,74.927 505.8,74.62 505.768,74.263 C505.737,73.896 505.83,73.466 506.042,72.959 L511.39,59.5 C511.004,59.314 510.655,59.039 510.332,58.673 C510.025,58.288 509.791,57.889 509.641,57.471 L495.832,20.568 C495.429,19.509 495.229,18.711 495.229,18.159 C495.229,17.605 495.415,17.175 495.781,16.851 C496.137,16.546 496.752,16.312 497.596,16.207 C498.457,16.083 499.594,16.021 500.992,16.021 C502.28,16.021 503.312,16.038 504.064,16.083 C504.815,16.132 505.401,16.251 505.812,16.423 C506.228,16.607 506.552,16.884 506.75,17.25 C506.969,17.636 507.185,18.173 507.383,18.854 L516.846,45.735 L516.984,45.735 L525.616,18.313 C525.802,17.545 526.031,17.021 526.306,16.761 C526.602,16.516 527.075,16.312 527.739,16.207 C528.396,16.083 529.549,16.021 531.193,16.021 C532.486,16.021 533.562,16.083 534.419,16.207 C535.267,16.312 535.894,16.546 536.309,16.884 C536.709,17.206 536.907,17.649 536.907,18.203 C536.907,18.757 536.802,19.418 536.556,20.155 L523.191,59.5" id="Fill-8" fill="#FFFFFE"></path>
            <path d="M11.9539,0.71 L69.3625,0.71 C75.9121,0.71 81.268,6.066 81.268,12.616 L81.268,70.028 C81.268,76.578 75.9121,81.93 69.3625,81.93 L11.9539,81.93 C5.4039,81.93 0.0457,76.578 0.0457,70.028 L0.0457,12.616 C0.0457,6.066 5.4039,0.71 11.9539,0.71" id="Fill-9" fill="#7EBC59"></path>
            <path d="M57.6246,50.055 C57.6246,52.346 57.1957,54.341 56.3367,56.094 C55.4906,57.83 54.2762,59.29 52.7254,60.459 C51.1574,61.624 49.3141,62.501 47.1781,63.083 C45.0598,63.667 42.7398,63.961 40.25,63.961 C38.7414,63.961 37.3168,63.852 35.9453,63.623 C34.5801,63.407 33.3672,63.116 32.2934,62.779 C31.1996,62.424 30.3098,62.07 29.5895,61.718 C28.866,61.346 28.3457,61.012 28.0043,60.704 C27.6816,60.38 27.4238,59.887 27.2367,59.211 C27.0684,58.538 26.9734,57.538 26.9734,56.218 C26.9734,55.357 27.0051,54.648 27.0684,54.129 C27.1262,53.607 27.2207,53.19 27.3309,52.868 C27.4504,52.561 27.6043,52.346 27.7898,52.237 C27.9602,52.13 28.1898,52.085 28.4652,52.085 C28.7875,52.085 29.2793,52.266 29.9242,52.653 C30.5711,53.022 31.3699,53.435 32.3371,53.881 C33.2902,54.327 34.4117,54.759 35.6871,55.143 C36.9613,55.542 38.4066,55.724 40.0188,55.724 C41.0488,55.724 41.9562,55.621 42.752,55.417 C43.5355,55.204 44.2293,54.912 44.8141,54.512 C45.4117,54.129 45.843,53.637 46.1492,53.022 C46.4426,52.425 46.5949,51.731 46.5949,50.961 C46.5949,50.055 46.3164,49.286 45.7641,48.641 C45.2105,47.999 44.4746,47.427 43.5527,46.954 C42.6469,46.478 41.6152,46.017 40.45,45.6 C39.2953,45.184 38.1141,44.712 36.8996,44.202 C35.6871,43.697 34.5027,43.112 33.3359,42.453 C32.1832,41.789 31.1527,40.978 30.2312,40.022 C29.327,39.057 28.5891,37.906 28.0352,36.552 C27.482,35.202 27.2086,33.585 27.2086,31.698 C27.2086,29.777 27.5746,28.011 28.3277,26.412 C29.0801,24.8 30.1555,23.433 31.5699,22.282 C32.966,21.143 34.6887,20.268 36.7172,19.639 C38.7414,19.007 41.0176,18.684 43.5355,18.684 C44.7969,18.684 46.023,18.777 47.2098,18.963 C48.3922,19.13 49.468,19.361 50.418,19.639 C51.3887,19.895 52.184,20.193 52.8469,20.514 C53.507,20.822 53.982,21.097 54.2762,21.311 C54.5531,21.543 54.7512,21.774 54.8773,21.988 C54.9961,22.215 55.0891,22.495 55.1508,22.804 C55.2121,23.127 55.2609,23.508 55.3047,23.969 C55.352,24.447 55.3805,25.013 55.3805,25.705 C55.3805,26.522 55.352,27.181 55.3047,27.691 C55.2609,28.193 55.182,28.611 55.0754,28.903 C54.9805,29.208 54.8285,29.408 54.6582,29.514 C54.4742,29.625 54.2625,29.669 54.0309,29.669 C53.752,29.669 53.3402,29.514 52.7691,29.191 C52.184,28.886 51.4812,28.549 50.6195,28.178 C49.7746,27.827 48.7777,27.488 47.6527,27.163 C46.5332,26.857 45.2406,26.702 43.8156,26.702 C42.7836,26.702 41.9078,26.795 41.1543,27.011 C40.4023,27.228 39.7875,27.519 39.3125,27.918 C38.8203,28.302 38.4684,28.763 38.2207,29.285 C37.9898,29.807 37.8707,30.377 37.8707,30.974 C37.8707,31.896 38.1441,32.681 38.7289,33.312 C39.2953,33.941 40.0359,34.495 40.9699,34.983 C41.9078,35.462 42.952,35.905 44.1504,36.339 C45.3332,36.753 46.5332,37.216 47.7457,37.703 C48.9582,38.195 50.1586,38.779 51.3414,39.439 C52.5258,40.098 53.5824,40.902 54.5215,41.868 C55.4434,42.821 56.1969,43.972 56.7645,45.309 C57.3336,46.646 57.6246,48.228 57.6246,50.055" id="Fill-10" fill="#FFFFFE"></path>
            <path d="M105.875,0.71 L163.286,0.71 C169.833,0.71 175.19,6.066 175.19,12.616 L175.19,70.028 C175.19,76.578 169.833,81.93 163.286,81.93 L105.875,81.93 C99.325,81.93 93.969,76.578 93.969,70.028 L93.969,12.616 C93.969,6.066 99.325,0.71 105.875,0.71" id="Fill-11" fill="#E590A7"></path>
            <path d="M141.105,13.339 C141.105,15.627 140.642,17.193 139.707,18.071 C138.785,18.944 137.048,19.377 134.531,19.377 C131.981,19.377 130.273,18.959 129.384,18.119 C128.494,17.272 128.047,15.765 128.047,13.57 C128.047,11.296 128.51,9.713 129.43,8.822 C130.334,7.935 132.071,7.485 134.623,7.485 C137.141,7.485 138.858,7.923 139.752,8.778 C140.653,9.64 141.105,11.159 141.105,13.339 Z M140.245,61.771 C140.245,62.075 140.169,62.344 139.983,62.572 C139.803,62.785 139.493,62.984 139.061,63.12 C138.615,63.274 138.047,63.383 137.327,63.46 C136.602,63.537 135.696,63.585 134.574,63.585 C133.469,63.585 132.549,63.537 131.843,63.46 C131.119,63.383 130.535,63.274 130.104,63.12 C129.661,62.984 129.353,62.782 129.183,62.572 C128.998,62.34 128.905,62.078 128.905,61.771 L128.905,27.027 C128.905,26.722 129.007,26.466 129.183,26.245 C129.36,26.025 129.661,25.818 130.104,25.658 C130.535,25.502 131.119,25.362 131.843,25.275 C132.545,25.185 133.469,25.138 134.574,25.138 C135.696,25.138 136.607,25.185 137.327,25.275 C138.047,25.362 138.615,25.5 139.061,25.658 C139.488,25.816 139.796,26.02 139.983,26.245 C140.162,26.462 140.245,26.725 140.245,27.027 L140.245,61.771 Z" id="Fill-12" fill="#FFFFFE"></path>
        </g>
    </g>
</svg>