<?xml version="1.0" standalone="no"?>
<!DOCTYPE svg PUBLIC "-//W3C//DTD SVG 20010904//EN"
 "http://www.w3.org/TR/2001/REC-SVG-20010904/DTD/svg10.dtd">
<svg version="1.0" xmlns="http://www.w3.org/2000/svg"
 width="844.000000pt" height="844.000000pt" viewBox="0 0 844.000000 844.000000"
 preserveAspectRatio="xMidYMid meet">
<metadata>
Created by potrace 1.11, written by Peter Selinger 2001-2013
</metadata>
<g transform="translate(0.000000,844.000000) scale(0.100000,-0.100000)"
fill="#000000" stroke="none">
<path d="M4105 7583 c-11 -2 -42 -8 -70 -13 -27 -6 -60 -12 -73 -15 -49 -9
-242 -82 -252 -95 -3 -3 -27 -19 -55 -34 -94 -54 -295 -235 -295 -266 0 -6 -3
-10 -8 -10 -11 0 -69 -92 -108 -169 -36 -72 -86 -201 -78 -201 2 0 0 -9 -6
-20 -6 -12 -13 -35 -15 -53 -2 -18 -7 -52 -11 -77 -4 -25 -8 -105 -8 -177 -1
-73 -5 -133 -9 -133 -4 0 -66 59 -137 130 l-128 131 55 54 c30 30 53 59 51 64
-5 16 -109 121 -119 121 -5 0 -34 -25 -64 -54 l-55 -55 -363 364 -364 364 -61
-62 c-34 -35 -62 -65 -62 -69 0 -4 162 -169 360 -368 l360 -360 -56 -57 -56
-56 65 -64 64 -65 52 51 c28 28 56 51 61 51 5 0 98 -89 206 -197 l197 -197 1
-183 c1 -116 -3 -183 -9 -184 -86 -4 -365 -2 -365 3 0 4 -7 5 -15 1 -9 -3 -39
-6 -68 -7 l-52 -1 -1 -342 c-1 -250 1 -343 10 -344 6 -1 118 -2 248 -3 130 -1
240 -4 244 -8 4 -4 7 -105 7 -225 l1 -218 -135 -2 c-155 -2 -240 -8 -266 -21
-10 -5 -36 -18 -58 -28 -88 -42 -181 -164 -200 -264 -24 -125 12 -254 97 -346
41 -44 121 -96 168 -108 22 -6 48 -16 125 -46 34 -14 60 -23 65 -24 3 -1 19
-6 35 -13 58 -22 142 -53 360 -133 121 -45 236 -87 255 -95 19 -7 73 -28 120
-45 47 -17 106 -45 132 -62 68 -43 141 -127 181 -207 48 -96 44 -92 75 -76 30
16 58 28 187 80 92 37 138 56 189 81 16 8 33 14 38 14 4 0 27 8 51 19 23 10
71 31 107 45 36 15 74 31 85 36 11 5 97 41 190 81 94 39 188 79 210 89 22 10
69 30 105 44 36 15 74 31 85 36 11 5 70 30 130 55 61 26 124 53 140 60 17 7
62 26 100 42 39 16 89 39 112 51 49 25 139 114 149 146 3 12 13 29 22 39 8 9
12 17 8 17 -4 0 -1 10 5 23 18 32 20 169 3 224 -16 52 -51 115 -86 153 -29 33
-104 91 -121 94 -6 2 -24 8 -40 14 -46 19 -76 22 -243 23 l-160 1 0 226 0 227
253 0 253 -1 1 23 c4 95 3 647 -1 657 -4 11 -30 14 -113 13 -59 -1 -107 2
-107 6 0 5 -5 5 -10 2 -10 -6 -111 -8 -231 -6 l-46 1 1 190 1 190 195 195 195
194 57 -56 57 -57 60 60 c33 32 61 63 61 69 0 5 -23 33 -52 62 l-52 53 359
361 c198 198 359 364 357 370 -1 5 -29 36 -61 68 l-59 59 -363 -364 -364 -364
-60 59 -60 60 -64 -66 -64 -65 59 -59 59 -59 -130 -130 -130 -130 -1 93 c-3
300 -53 475 -196 693 -23 35 -46 64 -50 64 -4 0 -8 4 -8 9 0 23 -158 168 -242
224 -79 52 -298 156 -298 142 0 -2 -15 1 -32 6 -18 6 -46 13 -63 16 -16 2 -49
8 -71 12 -42 8 -243 11 -279 4z"/>
<path d="M1675 2506 c-113 -27 -205 -99 -247 -193 -24 -55 -31 -165 -13 -217
40 -117 156 -199 315 -223 65 -9 185 -54 203 -74 72 -86 -95 -172 -221 -114
-47 22 -112 78 -112 96 0 5 -7 9 -15 9 -8 0 -15 -4 -15 -8 0 -5 -15 -16 -32
-25 -36 -18 -70 -39 -78 -47 -16 -16 -71 -50 -80 -50 -28 0 90 -132 150 -169
146 -87 344 -96 491 -20 51 25 130 104 152 150 52 111 32 262 -46 342 -65 67
-145 106 -307 148 -112 29 -147 45 -160 70 -24 43 40 89 125 89 53 0 98 -19
137 -57 23 -22 42 -34 46 -28 4 6 46 36 95 68 48 31 87 62 87 69 0 22 -74 101
-124 132 -28 18 -71 38 -96 46 -59 17 -192 20 -255 6z"/>
<path d="M3257 2504 c-194 -45 -365 -216 -410 -410 -16 -69 -15 -188 2 -259
24 -101 97 -221 168 -278 13 -10 29 -24 36 -30 17 -17 126 -73 168 -86 126
-40 294 -24 412 39 55 31 147 113 147 133 0 7 -32 29 -71 50 l-72 38 -26 -24
c-39 -35 -73 -54 -122 -67 -200 -54 -413 65 -464 261 -24 92 -4 237 42 290 7
8 13 18 13 22 0 21 118 117 143 117 10 0 17 4 17 9 0 29 222 35 275 7 17 -9
35 -16 40 -16 6 0 25 -14 44 -30 32 -29 71 -40 71 -21 0 5 16 15 35 22 19 7
35 17 35 21 0 4 7 8 15 8 31 0 28 31 -6 66 -50 52 -127 100 -200 124 -78 27
-209 33 -292 14z"/>
<path d="M4810 2504 c-132 -28 -258 -114 -336 -230 -30 -45 -41 -66 -69 -139
-26 -67 -26 -257 -1 -330 58 -166 176 -292 328 -349 76 -29 124 -37 203 -37
52 1 74 3 130 15 83 17 182 75 258 151 26 26 47 51 47 56 0 4 6 14 14 21 28
29 72 131 84 198 15 77 6 215 -18 282 -60 172 -210 312 -382 359 -64 17 -186
18 -258 3z m186 -169 c110 -17 225 -110 277 -224 16 -36 21 -67 21 -141 0 -87
-3 -101 -32 -162 -76 -158 -249 -242 -418 -202 -108 25 -193 95 -247 204 -29
59 -32 72 -31 160 0 82 4 103 27 153 53 113 173 202 290 214 28 3 54 7 56 9 2
2 7 1 11 -1 4 -3 25 -7 46 -10z"/>
<path d="M478 2482 c-10 -2 -18 -11 -19 -20 0 -9 -1 -163 -1 -342 -1 -381 -2
-390 -87 -438 -35 -20 -106 -17 -143 6 l-33 20 -90 -64 c-49 -35 -93 -64 -97
-64 -31 0 50 -84 112 -115 79 -40 183 -57 260 -42 145 28 285 162 316 302 10
44 12 745 3 751 -12 7 -138 9 -145 2 -3 -4 -18 -3 -32 1 -15 4 -35 5 -44 3z"/>
<path d="M6210 2480 l-35 -5 0 -502 c0 -276 4 -505 8 -509 12 -13 166 -12 170
0 1 6 3 167 2 358 -1 267 2 345 11 335 7 -6 56 -75 110 -152 54 -77 102 -141
106 -143 4 -2 8 -10 8 -18 0 -8 5 -14 10 -14 6 0 10 -4 10 -10 0 -5 20 -36 43
-67 24 -32 68 -94 98 -138 30 -44 57 -82 60 -85 3 -3 16 -21 30 -40 l24 -35
80 1 c44 1 85 2 90 3 15 2 14 1004 -1 1013 -6 4 -36 8 -65 8 -30 0 -65 0 -79
0 l-25 0 0 -355 c0 -195 -1 -355 -3 -355 -8 0 -51 56 -52 67 0 6 -4 13 -8 15
-7 3 -54 68 -316 443 -129 184 -132 187 -192 189 -27 0 -65 -1 -84 -4z"/>
<path d="M7846 2481 c-3 -4 -18 -6 -33 -4 l-28 5 1 -499 c1 -274 2 -505 3
-513 1 -13 16 -15 84 -14 45 1 84 2 87 3 3 0 5 97 5 214 l0 212 190 1 c105 1
196 2 203 3 8 1 12 24 12 81 0 76 -1 80 -22 81 -13 0 -104 1 -203 2 l-180 2 0
123 0 122 237 0 238 0 0 93 0 92 -72 -2 c-40 -2 -82 -3 -93 -3 -33 -1 -158 -1
-180 0 -11 1 -27 1 -35 1 -91 -2 -122 -1 -130 4 -5 3 -11 1 -14 -4 -4 -6 -18
-6 -36 -1 -16 5 -32 5 -34 1z"/>
<path d="M1464 1123 c-25 -5 -57 -36 -60 -60 -4 -25 14 -51 46 -68 16 -9 33
-16 37 -16 27 0 55 -14 64 -31 13 -23 3 -58 -17 -58 -8 0 -14 -4 -14 -9 0 -13
-48 -5 -75 13 -14 9 -25 21 -25 27 0 8 -5 7 -15 -1 -13 -11 -12 -16 10 -38 34
-34 90 -39 133 -12 31 19 36 32 33 75 -3 28 -37 54 -82 61 -72 12 -93 70 -31
88 27 8 38 5 61 -12 27 -20 41 -20 41 -1 0 12 -43 39 -66 42 -11 2 -29 2 -40
0z"/>
<path d="M1780 1122 c-38 -6 -81 -41 -96 -79 -15 -35 -16 -103 -2 -103 4 0 8
-6 8 -13 0 -7 13 -26 29 -41 40 -38 113 -45 160 -16 23 15 30 25 23 32 -7 7
-18 4 -36 -8 -69 -45 -160 4 -167 91 -2 35 0 43 26 73 32 39 91 51 136 28 56
-28 71 -13 19 18 -34 20 -63 25 -100 18z"/>
<path d="M3184 1119 c-81 -23 -120 -117 -82 -196 20 -42 76 -75 123 -72 47 3
102 36 86 52 -7 7 -16 5 -30 -7 -25 -23 -81 -23 -120 0 -65 39 -63 142 3 183
40 25 67 26 112 5 35 -17 52 -14 39 6 -16 26 -86 42 -131 29z"/>
<path d="M3492 1120 c-53 -12 -102 -77 -102 -135 0 -73 78 -142 150 -132 52 7
86 31 109 80 49 102 -43 212 -157 187z m93 -40 c78 -48 63 -169 -24 -197 -79
-26 -159 43 -141 123 19 81 97 116 165 74z"/>
<path d="M5487 1110 c-97 -51 -103 -182 -13 -235 61 -36 121 -32 163 11 22 22
-4 26 -38 5 -78 -48 -188 37 -159 123 8 26 42 74 53 76 55 10 80 9 106 -4 40
-21 58 -21 40 0 -31 38 -104 49 -152 24z"/>
<path d="M500 1015 c0 -93 -2 -106 -21 -124 -17 -15 -27 -17 -51 -10 -39 11
-57 1 -33 -18 28 -20 71 -16 101 10 26 23 27 28 29 130 1 80 -2 108 -12 111
-10 4 -13 -17 -13 -99z"/>
<path d="M703 1108 c-5 -7 -18 -33 -28 -58 -10 -25 -31 -73 -47 -108 -31 -70
-37 -103 -15 -80 7 7 18 22 24 33 10 17 22 20 80 21 65 0 68 -1 80 -28 7 -15
17 -28 23 -28 14 0 13 16 -5 50 -9 17 -13 30 -10 30 2 0 -3 15 -13 33 -10 17
-29 58 -41 90 -24 59 -32 66 -48 45z m27 -53 c0 -9 8 -30 17 -48 31 -59 29
-64 -32 -64 -30 1 -55 2 -55 3 0 1 7 19 16 40 9 22 20 49 25 62 10 25 29 30
29 7z"/>
<path d="M857 1098 c3 -13 9 -27 13 -33 3 -5 14 -32 24 -60 10 -27 21 -59 26
-70 4 -11 12 -32 19 -47 14 -37 29 -35 45 5 7 17 17 41 21 52 5 11 9 22 9 25
3 13 38 107 46 121 9 16 4 29 -11 29 -4 0 -24 -47 -45 -105 -22 -58 -41 -105
-45 -105 -3 0 -16 34 -30 75 -13 41 -28 75 -32 75 -5 0 -6 4 -3 8 6 10 -21 52
-34 52 -4 0 -6 -10 -3 -22z"/>
<path d="M1190 1105 c-6 -8 -13 -20 -14 -27 -1 -7 -7 -23 -14 -35 -7 -12 -12
-29 -12 -37 0 -9 -4 -16 -9 -16 -8 0 -23 -41 -20 -56 0 -4 -3 -10 -9 -13 -13
-9 -24 -61 -12 -61 5 0 16 13 24 28 14 28 18 29 83 28 64 -1 69 -3 81 -28 13
-28 32 -38 32 -17 0 5 -9 31 -21 57 -12 26 -28 63 -36 82 -38 87 -44 99 -52
104 -5 3 -14 -1 -21 -9z m64 -142 c6 -20 4 -21 -49 -20 -62 2 -60 -4 -22 83
l22 52 21 -47 c12 -25 24 -56 28 -68z"/>
<path d="M2009 1116 c-1 0 -3 -58 -4 -128 -1 -105 1 -128 13 -128 10 0 13 11
10 44 -2 37 0 46 16 50 19 5 44 -17 79 -68 10 -14 25 -26 33 -26 11 0 6 13
-17 46 l-32 47 22 16 c34 26 43 73 20 110 -10 17 -27 31 -36 32 -10 0 -37 2
-60 4 -24 1 -44 2 -44 1z m118 -52 c15 -24 15 -29 2 -53 -12 -22 -22 -26 -57
-26 -23 0 -42 3 -42 8 0 4 0 27 0 52 l0 45 40 0 c32 0 43 -5 57 -26z"/>
<path d="M2267 1113 c-2 -5 -3 -62 -3 -127 1 -86 4 -120 14 -123 9 -4 12 26
12 126 0 75 -4 131 -9 131 -6 0 -12 -3 -14 -7z"/>
<path d="M2396 1111 c-1 -3 -2 -60 -1 -125 0 -85 4 -121 13 -124 13 -4 15 4
12 59 -1 36 0 37 32 34 98 -9 145 105 60 149 -26 13 -111 18 -116 7z m112 -33
c15 -8 22 -20 22 -38 0 -37 -30 -62 -72 -58 -30 3 -33 6 -35 38 -3 63 3 78 34
73 16 -3 38 -9 51 -15z"/>
<path d="M2640 1103 c0 -8 14 -13 39 -13 47 0 47 -1 46 -132 -1 -75 2 -98 12
-98 10 0 13 26 13 115 0 125 -2 122 63 116 9 -1 17 4 17 12 0 11 -20 13 -95
13 -69 -1 -95 -4 -95 -13z"/>
<path d="M3759 1078 c-1 -53 1 -198 3 -215 1 -9 5 -9 13 -3 8 6 11 41 10 101
0 49 2 92 6 94 3 3 18 -13 33 -35 15 -22 33 -48 41 -58 8 -9 28 -36 45 -60 17
-24 36 -42 43 -39 17 5 17 245 0 251 -14 6 -16 -18 -13 -144 l1 -65 -79 105
c-43 58 -84 106 -90 108 -8 1 -12 -13 -13 -40z"/>
<path d="M4069 1071 c-1 -149 0 -203 5 -208 12 -13 20 9 20 59 l1 53 54 0 c77
0 80 23 4 27 l-58 3 0 40 0 40 68 3 c37 2 67 7 67 12 0 12 1 12 -87 14 l-73 2
-1 -45z"/>
<path d="M4323 990 l2 -125 55 -5 c67 -6 100 -1 100 14 0 8 -20 12 -65 11
l-65 -2 0 47 0 48 56 -3 c46 -3 55 -1 52 13 -2 13 -14 16 -56 13 l-52 -2 0 45
0 46 66 0 c48 0 65 3 62 12 -3 9 -29 13 -81 13 l-76 1 2 -126z"/>
<path d="M4584 988 c1 -97 4 -128 13 -128 9 0 13 16 13 49 0 44 2 48 23 46 35
-4 37 -4 37 -14 0 -21 46 -80 62 -81 15 0 13 7 -12 47 l-30 46 25 23 c14 13
25 27 26 31 0 4 2 15 4 25 4 23 -31 78 -52 79 -10 1 -38 2 -64 3 l-45 2 0
-128z m120 84 c34 -39 5 -90 -52 -88 l-37 1 -3 53 -3 52 39 0 c25 0 45 -7 56
-18z"/>
<path d="M4849 1111 c-4 -25 -3 -202 1 -225 5 -29 6 -29 78 -30 59 -1 72 2 70
14 -2 11 -17 15 -53 16 -80 2 -76 0 -73 47 l3 42 58 -1 c52 0 70 7 48 20 -4 3
-31 6 -58 7 l-50 2 0 44 0 43 64 0 c46 0 64 3 61 12 -5 13 -147 21 -149 9z"/>
<path d="M5109 1113 c-5 -44 -2 -246 4 -250 17 -10 20 10 19 109 -1 83 1 99
10 83 6 -11 16 -25 22 -32 21 -23 32 -38 75 -100 54 -77 71 -81 72 -15 2 110
0 205 -6 210 -14 14 -20 -22 -19 -112 1 -53 -2 -96 -7 -96 -5 0 -9 5 -9 10 0
6 -22 40 -50 75 -27 35 -50 67 -50 70 0 3 -10 16 -22 30 -21 25 -37 32 -39 18z"/>
<path d="M5740 988 c0 -144 -6 -136 93 -128 79 7 87 27 10 25 -74 -3 -79 0
-77 33 1 15 3 34 3 43 1 13 11 16 56 14 41 -1 55 1 55 11 0 10 -14 14 -47 14
-27 0 -53 4 -59 8 -10 6 -11 68 -2 78 2 2 31 4 65 5 44 1 60 5 57 14 -4 9 -29
12 -80 11 l-74 -1 0 -127z"/>
<path d="M6262 1107 c-6 -6 -19 -35 -30 -62 -11 -28 -32 -76 -46 -107 -14 -31
-26 -62 -26 -67 0 -22 22 -10 32 17 11 28 13 29 85 28 48 0 73 -4 73 -12 0 -7
9 -22 20 -35 38 -46 25 3 -35 136 -12 28 -28 65 -35 83 -13 35 -22 39 -38 19z
m27 -63 c2 -10 6 -21 10 -24 8 -6 31 -58 31 -70 0 -11 -99 -9 -106 2 -3 4 0
15 6 25 15 27 33 77 31 86 -1 5 4 7 11 5 7 -3 15 -13 17 -24z"/>
<path d="M6487 1112 c-2 -4 -3 -61 -3 -126 1 -86 4 -120 14 -124 8 -2 12 10
12 42 0 24 5 48 10 51 17 10 54 -19 75 -59 11 -21 27 -36 38 -36 15 0 13 7
-14 47 l-32 46 26 21 c35 29 41 76 13 111 -18 23 -30 27 -79 30 -31 2 -58 0
-60 -3z m120 -41 c31 -40 -4 -91 -62 -91 l-35 0 0 54 c0 49 2 55 23 58 32 5
60 -3 74 -21z"/>
<path d="M6779 1101 c-1 -18 -1 -23 -27 -148 -15 -72 -16 -93 -7 -97 8 -3 16
9 21 32 4 20 8 39 9 42 1 3 5 25 9 50 13 73 20 73 45 2 49 -142 59 -150 87
-74 9 26 27 71 39 101 l22 54 7 -49 c13 -89 30 -154 42 -154 7 0 10 13 8 33
-1 17 -4 32 -5 32 -1 0 -3 9 -4 20 -2 11 -9 47 -16 80 -6 33 -12 65 -12 72 0
7 -7 15 -14 17 -15 6 -19 -1 -68 -132 -15 -40 -30 -70 -34 -67 -3 4 -6 10 -6
13 0 4 -15 48 -33 98 -21 57 -39 91 -48 91 -8 0 -14 -7 -15 -16z"/>
<path d="M7139 1115 c-1 0 -2 -55 -4 -123 -2 -103 0 -124 14 -131 9 -6 23 -5
33 0 9 5 19 6 22 1 7 -12 86 -1 86 12 0 7 -19 11 -52 11 -74 -1 -84 6 -80 52
l4 39 49 -1 c53 -1 79 7 59 20 -6 4 -33 7 -60 7 -33 -1 -50 4 -54 14 -3 8 -2
14 3 14 4 0 6 14 3 30 l-4 30 66 0 c47 0 66 4 66 13 0 9 -21 12 -75 12 -41 0
-76 0 -76 0z"/>
<path d="M7395 993 c0 -90 3 -127 12 -130 9 -3 13 23 15 98 l3 103 74 -102
c41 -56 81 -102 89 -102 11 0 13 13 10 60 -1 33 1 60 5 60 5 0 5 5 1 12 -4 6
-6 35 -5 64 1 29 -3 55 -9 59 -12 7 -12 4 -15 -95 -4 -117 -4 -119 -17 -92 -6
12 -15 22 -20 22 -5 0 -6 5 -3 10 3 6 2 10 -3 10 -5 0 -22 19 -37 42 -43 65
-80 108 -93 108 -4 0 -7 -57 -7 -127z"/>
<path d="M7715 1112 c-15 -10 -13 -244 2 -249 8 -3 13 22 15 84 4 108 -3 175
-17 165z"/>
<path d="M7912 1073 c-11 -26 -30 -69 -42 -95 -11 -26 -20 -49 -20 -50 1 -2
-6 -16 -14 -33 -12 -22 -13 -31 -4 -34 7 -2 14 1 15 6 13 37 32 46 96 48 64 2
67 1 79 -26 7 -16 19 -29 25 -29 7 0 13 2 13 4 0 6 -89 218 -99 235 -15 28
-28 21 -49 -26z m45 -30 c7 -16 19 -44 27 -64 l15 -36 -55 0 c-30 0 -57 3 -60
8 -3 5 0 9 5 9 6 0 11 6 11 12 0 16 33 98 40 98 3 0 11 -12 17 -27z"/>
</g>
</svg>
