<svg width="1000" height="1000" viewBox="0 0 1000 1000" xmlns="http://www.w3.org/2000/svg"><title>Logo_we do software</title><g fill="none" fill-rule="evenodd"><path d="M376.142 533.954h-125.54c-20.356 0-39.863-12.187-31.948-37.981l27.988-77.088c2.55-10.773 10.462-18.141 20.645-20.69v-.286H453.89c-7.633 19.27-13.854 51.015-38.454 51.015H291.035c-.564.286-1.131.85-1.698 1.135l-11.874 32.877h125.819c20.355 0 39.866 12.187 31.67 37.982l-27.993 77.363c-2.828 10.498-10.461 18.426-20.36 20.7H199.993c7.355-18.994 13.572-51.018 38.172-51.018h124.403c.563-.282 1.13-.85 1.694-1.135l11.88-32.874m35.903 85.309l72.1-200.378c2.543-10.773 10.746-18.141 20.637-20.69v-.286h186.615c-7.637 19.27-13.576 51.015-38.176 51.015H533.908c-.574.286-1.13.85-1.701 1.135l-62.483 169.204h-57.679" fill="#1B1A18"/><path d="M606.568 482.936c-7.63 19.273-13.565 51.018-38.45 51.018h-59.095c7.636-19.272 13.864-51.018 38.457-51.018h59.088m17.812 136.327l67.862-188.191c5.935-15.874 14.135-32.31 30.82-33.163h37.88c-22.05 56.116-40.997 113.085-61.064 169.772h127.513c-7.636 19.266-13.582 51.3-38.45 51.3l-164.56.282" fill="#1B1A18"/><path d="M254.279 315.717c22.617 0 43.258 9.35 58.242 24.092 10.747 11.059 18.661 24.938 22.053 40.53h-22.617c-2.828-9.352-8.2-18.137-14.984-24.941-11.025-11.052-26.016-17.57-42.694-17.57-16.679 0-31.663 6.518-42.695 17.57-11.028 11.055-17.527 26.073-17.527 42.797 0 16.724 6.499 31.742 17.527 42.794 1.98 1.702 3.963 3.684 5.939 5.1-2.261 7.087-4.523 14.455-6.784 21.826-5.375-3.12-10.183-7.086-14.706-11.62-14.702-14.739-24.033-35.429-24.033-58.1 0-22.675 9.33-43.361 24.033-58.386 14.984-14.743 35.629-24.092 58.246-24.092zm0 34.012c13.286 0 25.445 5.669 34.209 14.168a56.904 56.904 0 0 1 10.747 16.442c-11.025.282-19.792.282-25.164.282-.567-.282-.845-.853-1.13-1.131-4.809-4.823-11.315-7.657-18.662-7.657-7.351 0-13.854 2.834-18.662 7.657-4.808 4.815-7.633 11.337-7.633 18.705 0 3.966.85 7.65 2.262 11.048-1.976 5.39-4.805 14.176-8.482 24.66a339.39 339.39 0 0 0-1.698-1.696c-8.764-8.506-14.135-20.693-14.135-34.012 0-13.326 5.653-25.509 14.135-34.298a48.274 48.274 0 0 1 34.213-14.168z" fill="#D8272C"/><path d="M215.114 678.679h.112l9.976-34.351h4.846l9.976 34.35h.113l9.75-34.35h4.283l-11.78 39.935h-4.733l-10.032-34.294h-.113l-10.031 34.294h-4.734l-11.78-39.935h4.284l9.863 34.35zm56.245 1.974h21.36v3.61H267.3v-39.935h24.741v3.61h-20.683V661.7h19.33v3.553h-19.33v15.399zm57.485-36.325h13.244c2.48 0 4.969.414 7.467 1.24a20.592 20.592 0 0 1 6.763 3.752c2.01 1.673 3.635 3.76 4.875 6.26 1.24 2.501 1.86 5.406 1.86 8.715 0 3.347-.62 6.261-1.86 8.743-1.24 2.482-2.865 4.56-4.875 6.233a20.592 20.592 0 0 1-6.763 3.75c-2.498.828-4.988 1.242-7.467 1.242h-13.244v-39.935zm4.057 36.325h8.06c3.005 0 5.626-.47 7.861-1.41 2.236-.94 4.086-2.172 5.552-3.695a15.09 15.09 0 0 0 3.297-5.217 17.067 17.067 0 0 0 1.099-6.036c0-2.068-.367-4.08-1.1-6.035a15.09 15.09 0 0 0-3.296-5.217c-1.466-1.523-3.316-2.755-5.552-3.695-2.235-.94-4.856-1.41-7.861-1.41h-8.06v32.715zm85.1-16.358c0 3.046-.525 5.848-1.577 8.405-1.052 2.557-2.508 4.766-4.368 6.627-1.86 1.862-4.058 3.319-6.594 4.372-2.536 1.052-5.288 1.579-8.256 1.579-2.969 0-5.72-.527-8.257-1.58-2.536-1.052-4.734-2.51-6.594-4.37-1.86-1.862-3.315-4.071-4.367-6.628-1.052-2.557-1.578-5.359-1.578-8.405 0-3.046.526-5.847 1.578-8.404 1.052-2.557 2.507-4.766 4.367-6.628 1.86-1.86 4.058-3.318 6.594-4.37 2.536-1.054 5.288-1.58 8.257-1.58 2.968 0 5.72.526 8.256 1.58 2.536 1.052 4.734 2.51 6.594 4.37 1.86 1.862 3.316 4.071 4.368 6.628 1.052 2.557 1.578 5.358 1.578 8.404zm-4.283 0c0-2.331-.375-4.55-1.127-6.655-.751-2.106-1.84-3.958-3.269-5.556-1.427-1.598-3.165-2.868-5.213-3.808-2.047-.94-4.349-1.41-6.903-1.41-2.555 0-4.857.47-6.904 1.41-2.048.94-3.786 2.21-5.213 3.808-1.428 1.598-2.518 3.45-3.27 5.556-.75 2.105-1.126 4.324-1.126 6.655 0 2.332.375 4.55 1.127 6.656.751 2.106 1.84 3.948 3.269 5.528 1.427 1.58 3.165 2.839 5.213 3.779 2.047.94 4.349 1.41 6.904 1.41 2.554 0 4.856-.47 6.903-1.41 2.048-.94 3.786-2.2 5.213-3.78 1.428-1.579 2.518-3.421 3.27-5.527.75-2.106 1.126-4.324 1.126-6.656zm60.247-13.537a9.748 9.748 0 0 0-3.325-2.905c-1.353-.733-2.987-1.1-4.903-1.1-.977 0-1.973.15-2.987.452a8.662 8.662 0 0 0-2.762 1.382 7.1 7.1 0 0 0-2 2.34c-.508.94-.761 2.05-.761 3.328 0 1.279.244 2.332.732 3.159a6.944 6.944 0 0 0 1.945 2.115 11.285 11.285 0 0 0 2.761 1.438c1.033.376 2.114.753 3.24 1.129 1.39.45 2.79.94 4.2 1.466a15.094 15.094 0 0 1 3.803 2.059c1.128.846 2.048 1.918 2.762 3.215s1.07 2.942 1.07 4.935c0 1.993-.384 3.714-1.155 5.161-.77 1.448-1.765 2.642-2.987 3.582-1.22.94-2.61 1.636-4.17 2.087-1.56.451-3.128.677-4.706.677a18.03 18.03 0 0 1-3.607-.367 16.306 16.306 0 0 1-3.438-1.1 14.059 14.059 0 0 1-3.043-1.86 13.526 13.526 0 0 1-2.48-2.596l3.495-2.594c.864 1.429 2.075 2.623 3.635 3.582 1.559.958 3.39 1.438 5.495 1.438 1.014 0 2.047-.16 3.1-.48 1.051-.32 2-.808 2.845-1.466a8.121 8.121 0 0 0 2.085-2.426c.545-.958.818-2.077.818-3.356 0-1.39-.273-2.547-.818-3.469a7.278 7.278 0 0 0-2.17-2.312c-.901-.62-1.934-1.138-3.099-1.551a137.83 137.83 0 0 0-3.663-1.241 48.006 48.006 0 0 1-3.889-1.41 13.15 13.15 0 0 1-3.438-2.06 9.614 9.614 0 0 1-2.451-3.13c-.62-1.24-.93-2.763-.93-4.568 0-1.918.385-3.573 1.155-4.964a10.455 10.455 0 0 1 3.015-3.44 12.621 12.621 0 0 1 4.114-1.975 16.724 16.724 0 0 1 4.453-.62c2.705 0 5.015.48 6.932 1.438 1.916.959 3.362 2.096 4.34 3.413l-3.213 2.594zm58.95 13.537c0 3.046-.526 5.848-1.578 8.405-1.052 2.557-2.508 4.766-4.368 6.627-1.86 1.862-4.057 3.319-6.594 4.372-2.536 1.052-5.288 1.579-8.256 1.579s-5.72-.527-8.256-1.58c-2.537-1.052-4.734-2.51-6.594-4.37-1.86-1.862-3.316-4.071-4.368-6.628-1.052-2.557-1.578-5.359-1.578-8.405 0-3.046.526-5.847 1.578-8.404 1.052-2.557 2.508-4.766 4.368-6.628 1.86-1.86 4.057-3.318 6.594-4.37 2.536-1.054 5.288-1.58 8.256-1.58s5.72.526 8.256 1.58c2.537 1.052 4.734 2.51 6.594 4.37 1.86 1.862 3.316 4.071 4.368 6.628 1.052 2.557 1.578 5.358 1.578 8.404zm-4.283 0c0-2.331-.376-4.55-1.127-6.655-.752-2.106-1.841-3.958-3.27-5.556-1.427-1.598-3.164-2.868-5.212-3.808-2.048-.94-4.35-1.41-6.904-1.41-2.555 0-4.856.47-6.904 1.41-2.047.94-3.785 2.21-5.213 3.808-1.428 1.598-2.517 3.45-3.269 5.556-.751 2.105-1.127 4.324-1.127 6.655 0 2.332.376 4.55 1.127 6.656.752 2.106 1.841 3.948 3.27 5.528 1.427 1.58 3.165 2.839 5.212 3.779 2.048.94 4.35 1.41 6.904 1.41 2.555 0 4.856-.47 6.904-1.41s3.785-2.2 5.213-3.78c1.428-1.579 2.517-3.421 3.269-5.527.751-2.106 1.127-4.324 1.127-6.656zm23.84 19.968h-4.059v-39.935h24.065v3.61h-20.007v13.876h18.598v3.553h-18.598v18.896zm47.452 0h-4.057v-36.325H582.51v-3.61h30.771v3.61h-13.357v36.325zm36.013-5.584h.113l9.975-34.351h4.847l9.975 34.35h.113l9.75-34.35h4.283l-11.779 39.935h-4.734l-10.032-34.294h-.112l-10.032 34.294h-4.734l-11.779-39.935h4.283l9.863 34.35zm51.23 5.584h-4.453l17.245-39.935h3.945l17.133 39.935h-4.508l-4.396-10.492h-20.627l-4.34 10.492zm5.86-14.214h17.584l-8.792-21.209-8.792 21.209zm44.974 14.214h-4.058v-39.935h11.723c1.953 0 3.766.188 5.438.564 1.672.376 3.119.987 4.34 1.833a8.645 8.645 0 0 1 2.846 3.3c.676 1.354 1.014 3.008 1.014 4.964 0 1.466-.263 2.801-.789 4.004a9.866 9.866 0 0 1-2.141 3.13c-.902.884-1.973 1.59-3.213 2.116s-2.592.865-4.058 1.015l11.666 19.009h-4.96l-11.045-18.67H738v18.67zm0-22.167h7.045c3.268 0 5.786-.593 7.552-1.777 1.765-1.185 2.648-2.961 2.648-5.33 0-1.317-.244-2.426-.732-3.328a5.999 5.999 0 0 0-2.03-2.2c-.863-.564-1.915-.978-3.155-1.241-1.24-.263-2.611-.395-4.114-.395H738v14.27zm40.803 18.557h21.36v3.61h-25.418v-39.935h24.741v3.61h-20.683V661.7h19.33v3.553h-19.33v15.399z" fill="#1A1918"/></g></svg>