<?xml version="1.0" encoding="UTF-8"?>
<svg width="402px" height="84px" viewBox="0 0 402 84" version="1.1" xmlns="http://www.w3.org/2000/svg" xmlns:xlink="http://www.w3.org/1999/xlink">
    <!-- Generator: Sketch 51.2 (57519) - http://www.bohemiancoding.com/sketch -->
    <title>Group 2</title>
    <desc>Created with Sketch.</desc>
    <defs>
        <linearGradient x1="50%" y1="162.719708%" x2="50%" y2="-64.9473218%" id="linearGradient-1">
            <stop stop-color="#366FDE" offset="0%"></stop>
            <stop stop-color="#60F6DE" offset="100%"></stop>
        </linearGradient>
    </defs>
    <g id="Page-1" stroke="none" stroke-width="1" fill="none" fill-rule="evenodd">
        <g id="devlix-copy-13" transform="translate(-176.000000, -367.000000)">
            <g id="Group-2" transform="translate(176.000000, 367.000000)">
                <path d="M22.888,19.669 C35.481,19.669 45.705,29.893 45.705,42.486 C45.705,55.079 35.481,65.303 22.888,65.303 C10.295,65.303 0.071,55.079 0.071,42.486 C0.071,29.893 10.295,19.669 22.888,19.669" id="Fill-8" fill="url(#linearGradient-1)"></path>
                <path d="M39.695,64.095 L49.566,73.965 C42.332,80.077 32.984,83.763 22.783,83.763 L22.579,83.762 L22.579,69.875 C22.647,69.876 22.715,69.876 22.783,69.876 C29.151,69.876 35.019,67.718 39.695,64.095 Z M43.447,60.965 C47.872,56.128 50.572,49.688 50.572,42.623 C50.572,28.048 39.079,16.136 24.669,15.463 L24.703,15.433 L22.953,15.433 L22.953,0.743 L25.342,0.743 L25.291,0.789 C47.233,1.813 64.733,19.952 64.733,42.145 C64.733,53.241 60.359,63.323 53.242,70.76 L43.447,60.965 Z" id="Combined-Shape" fill="#19191A"></path>
                <path d="M107.010499,64 L107.010499,21.91 C112.337859,21.5439982 117.400808,21.361 122.199499,21.361 C128.380863,21.361 132.701653,22.926651 135.161999,26.058 C137.622344,29.189349 138.852499,34.821626 138.852499,42.955 C138.852499,51.088374 137.622344,56.720651 135.161999,59.852 C132.701653,62.983349 128.380863,64.549 122.199499,64.549 C117.400808,64.549 112.337859,64.3660018 107.010499,64 Z M113.110499,26.729 L113.110499,59.059 C115.713178,59.1810006 118.742815,59.242 122.199499,59.242 C126.022184,59.242 128.675658,58.0626785 130.159999,55.704 C131.644339,53.3453215 132.386499,49.0956974 132.386499,42.955 C132.386499,36.8143026 131.644339,32.5646785 130.159999,30.206 C128.675658,27.8473215 126.022184,26.668 122.199499,26.668 C120.979493,26.668 119.363009,26.6781666 117.349999,26.6985 C115.336989,26.7188334 113.923836,26.729 113.110499,26.729 Z M194.209499,58.937 L194.514499,63.634 C190.813814,63.959335 184.795207,64.122 176.458499,64.122 C173.855819,64.122 171.802173,63.4408401 170.297499,62.0785 C168.792825,60.7161599 168.020166,58.8760116 167.979499,56.558 L167.979499,29.352 C168.020166,27.0339884 168.792825,25.1938401 170.297499,23.8315 C171.802173,22.4691599 173.855819,21.788 176.458499,21.788 C184.795207,21.788 190.813814,21.950665 194.514499,22.276 L194.209499,27.034 L177.495499,27.034 C176.275493,27.034 175.411335,27.3288304 174.902999,27.9185 C174.394663,28.5081696 174.140499,29.5146595 174.140499,30.938 L174.140499,39.356 L191.891499,39.356 L191.891499,44.297 L174.140499,44.297 L174.140499,55.033 C174.140499,56.4563404 174.394663,57.4628304 174.902999,58.0525 C175.411335,58.6421696 176.275493,58.937 177.495499,58.937 L194.209499,58.937 Z M254.6905,21.91 L242.2465,62.292 C241.880498,63.4306724 241.107839,64 239.9285,64 L233.9505,64 C232.77116,64 231.998501,63.4306724 231.6325,62.292 L219.1885,21.91 L225.4715,21.91 L234.9875,54.667 C235.190834,55.4396705 235.577163,56.9849884 236.1465,59.303 L237.7935,59.303 C238.037501,58.1236608 238.42383,56.5783429 238.9525,54.667 L248.4075,21.91 L254.6905,21.91 Z M287.4775,21.91 L287.4775,54.972 C287.4775,56.3953404 287.762164,57.4018304 288.3315,57.9915 C288.900836,58.5811696 289.89716,58.876 291.3205,58.876 L306.2655,58.876 L306.5705,63.573 C302.625814,63.9390018 297.217201,64.122 290.3445,64.122 C284.36647,64.122 281.3775,61.3566943 281.3775,55.826 L281.3775,21.91 L287.4775,21.91 Z M339.7845,64 L333.6845,64 L333.6845,21.91 L339.7845,21.91 L339.7845,64 Z M385.137501,44.48 L383.673501,44.48 L373.669501,64 L367.020501,64 L378.610501,42.223 L367.813501,21.91 L374.401501,21.91 L383.612501,39.844 L385.198501,39.844 L394.409501,21.91 L400.997501,21.91 L390.200501,42.223 L401.790501,64 L395.141501,64 L385.137501,44.48 Z" id="DEVLIX" fill="#19191A"></path>
            </g>
        </g>
    </g>
</svg>