<svg xmlns="http://www.w3.org/2000/svg" viewBox="0 0 96.89 60.57"><defs><style>.cls-1{fill:#e2231a}.cls-2{fill:#fff}</style></defs><title>dvld</title><g id="Layer_2" data-name="Layer 2"><g id="Layer_1-2" data-name="Layer 1"><path class="cls-1" d="M0 52.95h2.72a3.69 3.69 0 1 1 0 7.38H0zm1.92 5.75h.43a2.06 2.06 0 1 0 0-4.13h-.43zM12.21 54.57v1.23h2.16v1.63h-2.16v1.27h2.28v1.62h-4.2v-7.37h4.2v1.62h-2.28zM21.7 57.43l1.78-4.48h2.09l-3.15 7.37h-1.49l-3.1-7.37h2.08l1.79 4.48zM30.9 54.57v1.23h2.16v1.63H30.9v1.27h2.28v1.62h-4.2v-7.37h4.2v1.62H30.9zM39.21 58.7h2.3v1.62H37.3v-7.37h1.91v5.75zM47 59l-.51 1.28h-2l2.84-7.37h2.09l2.78 7.38h-2L49.59 59zm1.34-3.81l-.79 2.35h1.59zM55.65 52.95h1.91l3.52 4.51h.01v-4.51h1.92v7.37h-1.92l-3.51-4.52h-.02v4.52h-1.91v-7.37zM67.2 52.95h2.72a3.69 3.69 0 1 1 0 7.38H67.2zm1.92 5.75h.43a2.06 2.06 0 1 0 0-4.13h-.45zM85.27 56.5a4.09 4.09 0 1 1-4.08-3.8 3.92 3.92 0 0 1 4.08 3.8m-6.16 0a2.09 2.09 0 1 0 4.17 0 2.09 2.09 0 0 0-4.17 0"/><path class="cls-2" d="M73 0v11.73a12.56 12.56 0 0 1 0 25.1v11.73A24.28 24.28 0 0 0 73 0M59.41 36.83V0h-4.58l-7.14 23.98v24.58H72.1V36.83H59.41zM41.76 0l-7.83 25.92L26.77 0H14.65l1.41 5.18a25.06 25.06 0 0 1 8.68 19 25 25 0 0 1-1.33 8l4.46 16.38h11.62L54 0z"/><path class="cls-2" d="M0 0v11.73a12.57 12.57 0 0 1 12.18 12.55A12.57 12.57 0 0 1 0 36.83v11.73a24.31 24.31 0 0 0 23.9-24.28A24.31 24.31 0 0 0 0 0"/><path class="cls-1" d="M96.89 56.5a4.09 4.09 0 1 1-4.08-3.8 3.92 3.92 0 0 1 4.08 3.8m-6.16 0a2.09 2.09 0 1 0 4.17 0 2.09 2.09 0 0 0-4.17 0"/></g></g></svg>