<?xml version="1.0" encoding="utf-8"?>
<!-- Generator: Adobe Illustrator 18.0.0, SVG Export Plug-In . SVG Version: 6.00 Build 0)  -->
<!DOCTYPE svg PUBLIC "-//W3C//DTD SVG 1.1//EN" "http://www.w3.org/Graphics/SVG/1.1/DTD/svg11.dtd">
<svg version="1.1" id="Layer_1" xmlns="http://www.w3.org/2000/svg" xmlns:xlink="http://www.w3.org/1999/xlink" x="0px" y="0px"
	 viewBox="127.6 342.9 340 156" enable-background="new 127.6 342.9 340 156" xml:space="preserve">
<path fill="#00528C" d="M440.7,431.5l-4.3-1.3l9-16.6l-16.2-26.9l3.8-0.9l14.1,23.9l12.4-24.3l3.8,1.3L440.7,431.5z M423.6,406.3
	v18.8c-2.1,2.1-4.7,3.4-7.3,4.7c-2.6,0.9-5.5,1.7-8.5,1.7c-3,0-6-0.4-8.5-1.7c-2.6-0.9-5.1-2.6-7.3-4.7s-3.8-4.7-5.1-7.7
	c-1.3-3-2.1-6-2.1-9.4c0-2.6,0.4-5.5,1.7-8.1c0.9-2.6,2.6-5.1,4.3-7.3c2.1-2.6,4.7-4.3,7.7-5.5s6-2.1,9.8-2.1c3,0,5.5,0.4,8.1,1.3
	c2.6,0.9,4.7,2.1,6.8,4.3l-2.6,3c-1.7-1.7-3.8-3-6-3.4c-2.1-0.9-4.3-1.3-6.8-1.3c-5.5,0-9.8,1.7-13.7,5.5c-3.8,3.8-5.5,8.1-5.5,13.7
	s1.7,10.2,5.5,13.7c3.8,3.8,8.1,5.5,13.7,5.5c2.1,0,4.3-0.4,6.4-0.9c2.1-0.9,3.8-1.7,5.5-3v-13.2h-14.9l1.3-3.8H423.6z M354.9,431
	v-44.8h7.3c4.3,0,7.7,1.3,10.2,3.4c2.6,2.6,3.8,5.5,3.8,9.4c0,3.4-0.9,6-3,8.5c-1.7,2.1-4.3,3.8-7.7,4.3l13.7,17.1l-3.4,2.1
	l-17.1-22.2h3c3.4,0,5.5-0.9,7.7-2.6c1.7-1.7,2.6-3.8,2.6-6.8s-0.9-5.1-2.6-6.8s-4.3-2.6-7.7-2.6h-3v40.6L354.9,431z M320.8,430.2
	v-44h23.5l0.9,3.8h-20.5v15.8h17.5v3.4h-17.5v17.1h21.8l-0.9,3.8H320.8z M275.5,431v-45.7l29.9,35.4v-35l3.8-0.9v45.7l-29.9-35.9v35
	L275.5,431z M246.1,431.5l-4.3-1.3l9-16.6l-16.2-26.9l3.8-0.9l14.1,23.9l12.4-24.3l3.8,1.3L246.1,431.5z M205.5,420.8
	c1.3,2.1,3,3.8,4.7,4.7s3.8,1.7,6,1.7c3,0,5.1-0.9,7.3-2.6c1.7-1.7,3-3.8,3-6.4c0-4.3-3.4-7.3-10.7-9.4c-0.9-0.4-1.3-0.4-1.7-0.4
	c-3.4-1.3-6.4-2.6-8.1-4.3c-1.7-1.7-2.6-4.3-2.6-7.3c0-3.4,1.3-6,3.8-8.5c2.6-2.1,5.5-3.4,9.4-3.4c2.1,0,4.3,0.4,6.4,1.3
	c1.7,0.9,3.8,2.1,5.5,3.8l-2.6,3c-1.7-1.7-3.4-2.6-4.7-3.4s-3-0.9-4.7-0.9c-2.6,0-4.7,0.9-6.4,2.6c-1.7,1.7-2.6,3.4-2.6,6
	c0,1.3,0.4,2.6,0.9,3.8c0.9,0.9,1.7,2.1,3,2.6c0.9,0.4,3,1.3,5.5,2.1c1.3,0.4,2.6,0.9,3.4,0.9c3.4,1.3,5.5,2.6,7.3,4.7
	c1.7,2.1,2.6,4.3,2.6,7.3c0,3.8-1.3,6.8-3.8,9c-2.6,2.6-6,3.8-10.2,3.8c-3,0-5.5-0.9-7.7-2.1c-2.6-1.3-4.3-3.4-6-6L205.5,420.8z"/>
<path fill="#00528C" d="M456.1,451.1c0.4,0.9,0.9,1.3,1.7,1.7c0.4,0.4,1.3,0.4,2.1,0.4c0.9,0,1.7-0.4,2.6-0.9
	c0.9-0.4,0.9-1.3,0.9-2.1c0-1.3-1.3-2.6-3.8-3.4c-0.4,0-0.4,0-0.4,0c-1.3-0.4-2.1-0.9-3-1.7c-0.4-0.9-0.9-1.7-0.9-2.6
	c0-1.3,0.4-2.1,1.3-3c0.9-0.9,2.1-1.3,3.4-1.3c0.9,0,1.7,0,2.1,0.4c0.9,0.4,1.3,0.9,2.1,1.3l-0.9,1.3c-0.4-0.4-1.3-0.9-1.7-1.3
	c-0.4-0.4-1.3-0.4-1.7-0.4c-0.9,0-1.7,0.4-2.1,0.9s-0.9,1.3-0.9,2.1c0,0.4,0,0.9,0.4,1.3c0.4,0.4,0.4,0.9,1.3,0.9
	c0.4,0,0.9,0.4,2.1,0.9c0.4,0,0.9,0.4,1.3,0.4c1.3,0.4,2.1,0.9,2.6,1.7s0.9,1.7,0.9,2.6c0,1.3-0.4,2.6-1.3,3.4
	c-0.9,0.9-2.1,1.3-3.4,1.3c-0.9,0-2.1-0.4-3-0.9c-0.9-0.4-1.7-1.3-2.1-2.1L456.1,451.1z M435.6,454.5l3.4-16.6l5.5,13.2l5.5-13.2
	l3.4,16.6l-1.3,0.4l-2.6-12l-5.1,12l-5.1-12l-2.6,12L435.6,454.5z M424.9,454.5v-15.8h8.5l0.4,1.3h-7.3v6h6.4v1.3h-6.4v6h7.7
	l-0.4,1.3H424.9z M416.4,455V440h-4.3l0.4-1.3h9.4v1.3h-4.3v14.5L416.4,455z M401.4,451.1c0.4,0.9,0.9,1.3,1.7,1.7
	c0.4,0.4,1.3,0.4,2.1,0.4c0.9,0,1.7-0.4,2.6-0.9c0.9-0.4,0.9-1.3,0.9-2.1c0-1.3-1.3-2.6-3.8-3.4c-0.4,0-0.4,0-0.4,0
	c-1.3-0.4-2.1-0.9-3-1.7c-0.4-0.9-0.9-1.7-0.9-2.6c0-1.3,0.4-2.1,1.3-3s2.1-1.3,3.4-1.3c0.9,0,1.7,0,2.1,0.4
	c0.9,0.4,1.3,0.9,2.1,1.3l-0.9,1.3c-0.4-0.4-1.3-0.9-1.7-1.3s-1.3-0.4-1.7-0.4c-0.9,0-1.7,0.4-2.1,0.9s-0.9,1.3-0.9,2.1
	c0,0.4,0,0.9,0.4,1.3s0.4,0.9,1.3,0.9c0.4,0,0.9,0.4,2.1,0.9c0.4,0,0.9,0.4,1.3,0.4c1.3,0.4,2.1,0.9,2.6,1.7
	c0.4,0.9,0.9,1.7,0.9,2.6c0,1.3-0.4,2.6-1.3,3.4s-2.1,1.3-3.4,1.3c-0.9,0-2.1-0.4-3-0.9c-0.9-0.4-1.7-1.3-2.1-2.1L401.4,451.1z
	 M390.3,455l-1.3-0.4l3.4-6l-6-9.8l1.3-0.4l5.1,8.5l4.7-8.5l1.3,0.4L390.3,455z M376.3,451.1c0.4,0.9,0.9,1.3,1.7,1.7
	c0.4,0.4,1.3,0.4,2.1,0.4c0.9,0,1.7-0.4,2.6-0.9c0.9-0.4,0.9-1.3,0.9-2.1c0-1.3-1.3-2.6-3.8-3.4c-0.4,0-0.4,0-0.4,0
	c-1.3-0.4-2.1-0.9-3-1.7c-0.4-0.9-0.9-1.7-0.9-2.6c0-1.3,0.4-2.1,1.3-3c0.9-0.9,2.1-1.3,3.4-1.3c0.9,0,1.7,0,2.1,0.4
	c0.9,0.4,1.3,0.9,2.1,1.3l-0.9,1.3c-0.4-0.4-1.3-0.9-1.7-1.3s-1.3-0.4-1.7-0.4c-0.9,0-1.7,0.4-2.1,0.9s-0.9,1.3-0.9,2.1
	c0,0.4,0,0.9,0.4,1.3s0.4,0.9,1.3,0.9c0.4,0,0.9,0.4,2.1,0.9c0.4,0,0.9,0.4,1.3,0.4c1.3,0.4,2.1,0.9,2.6,1.7
	c0.4,0.9,0.9,1.7,0.9,2.6c0,1.3-0.4,2.6-1.3,3.4s-2.1,1.3-3.4,1.3c-0.9,0-2.1-0.4-3-0.9c-0.9-0.4-1.7-1.3-2.1-2.1L376.3,451.1z
	 M358.8,454.5v-15.8h1.3v14.5h5.5l-0.4,1.3H358.8z M340.4,454.5l8.5-16.2l8.1,16.2l-1.3,0.4l-3.4-6.4h-7.3l-3.4,6.4L340.4,454.5z
	 M345.5,446.8h5.5l-3-5.5L345.5,446.8z M326.3,455v-16.6l10.7,12.8v-12.4l1.3-0.4V455l-10.7-12.8v12.4L326.3,455z M306.3,446.8
	c0-1.3,0.4-2.1,0.9-3.4c0.4-0.9,1.3-2.1,2.1-2.6c0.9-0.9,1.7-1.3,2.6-1.7c0.9-0.4,2.1-0.4,3-0.4c1.3,0,2.1,0,3,0.4s1.7,0.9,2.6,1.7
	c0.9,0.9,1.3,1.7,2.1,2.6c0.4,0.9,0.9,2.1,0.9,3.4s-0.4,2.1-0.9,3.4s-1.3,2.1-1.7,2.6c-0.9,0.9-1.7,1.3-2.6,1.7
	c-0.9,0.4-2.1,0.4-3,0.4c-1.3,0-2.1,0-3-0.4s-1.7-0.9-2.6-1.7c-0.9-0.9-1.3-1.7-2.1-3C306.7,449,306.3,447.7,306.3,446.8z
	 M308,446.8c0,2.1,0.9,3.4,2.1,5.1c1.3,1.3,3,2.1,4.7,2.1s3.4-0.9,4.7-2.1s2.1-3,2.1-5.1s-0.9-3.4-2.1-5.1c-1.3-1.3-3-2.1-4.7-2.1
	c-2.1,0-3.4,0.9-4.7,2.1C308.4,443,308,444.7,308,446.8z M301.6,455v-16.2h1.3V455H301.6z M293,455V440h-4.3l0.4-1.3h9.4v1.3h-4.3
	v14.5L293,455z M273,454.5l8.5-16.2l8.1,16.2l-1.3,0.4l-3.4-6.4h-7.3l-3.4,6.4L273,454.5z M278.5,446.8h5.5l-2.6-5.5L278.5,446.8z
	 M258.9,455v-16.6l10.7,12.8v-12.4l1.3-0.4V455l-10.7-12.8v12.4L258.9,455z M247.8,455v-16.2h2.6c1.7,0,2.6,0.4,3.8,1.3
	c0.9,0.9,1.3,2.1,1.3,3.4s-0.4,2.1-0.9,3c-0.9,0.9-1.7,1.3-2.6,1.7l4.7,6l-1.3,0.9l-6-8.1h1.3c1.3,0,2.1-0.4,2.6-0.9
	c0.9-0.4,0.9-1.3,0.9-2.6c0-0.9-0.4-1.7-0.9-2.6c-0.9-0.4-1.7-0.9-3-0.9h-1.3v14.5L247.8,455z M235.8,454.5v-15.8h8.5l0.4,1.3h-7.3
	v6h6.4v1.3h-6.4v6h7.7l-0.4,1.3H235.8z M227.7,455V440h-4.3l0.4-1.3h9.4v1.3H229v14.5L227.7,455z M208.5,455v-16.6l10.7,12.8v-12.4
	l1.3-0.4V455l-10.7-12.8v12.4L208.5,455z M203,455v-16.2h1.3V455H203z"/>
<g>
	<path fill="#00528C" d="M167.5,420.4L167.5,420.4c-1.7,16.2-3,32.4-37.1,33.3l0,0v0.4c0,0.4,0.4,0.9,0.9,0.9h60.2
		c0.4,0,0.9-0.4,0.9-0.9V399C169.2,399,168.4,409.7,167.5,420.4z"/>
	<path fill="#00528C" d="M191.4,385.4h-60.2c-0.4,0-0.9,0.4-0.9,0.9v55.1l0,0c23-0.9,23.9-11.5,25.2-22.2l0,0
		c1.7-16.2,3-32,37.1-32.4v-0.4C192.3,385.8,191.9,385.4,191.4,385.4z"/>
</g>
</svg>
