<?xml version="1.0" encoding="UTF-8" standalone="no"?>
<!DOCTYPE svg PUBLIC "-//W3C//DTD SVG 1.1//EN"
"http://www.w3.org/Graphics/SVG/1.1/DTD/svg11.dtd">


<!-- Page 1 -->
<svg x="0" y="0" width="1286" height="454" viewBox="0 0 1286 454" version="1.1" xmlns="http://www.w3.org/2000/svg" xmlns:xlink="http://www.w3.org/1999/xlink"
style="display: block;margin-left: auto;margin-right: auto;">
<defs>

<style type="text/css"><![CDATA[

.g0_1{
fill: #00A8BC;
}

]]></style>

</defs>
<path fill-rule="evenodd" d="M675.8,263h22.1V191.7H675.8V263Z" class="g0_1" />
<path fill-rule="evenodd" d="M787.1,191.7H712.4v18.6h26.3V263h22.1V210.3h26.3Z" class="g0_1" />
<path fill-rule="evenodd" d="M908.3,263h22.1V191.7H908.3V263Z" class="g0_1" />
<path fill-rule="evenodd" d="M1009.7,191.7v40.7L965.9,195.5C957.1,187.4,945,192.4,945,205v58h20.1V221.1l43.7,38.1c8.6,8.3,21,3,21,-9.6V191.7Z" class="g0_1" />
<path fill-rule="evenodd" d="M494.6,234.1c-1.1,2.1,-2.5,3.9,-4.4,5.5c-1.9,1.5,-4.1,2.7,-6.7,3.6c-2.6,.8,-5.3,1.3,-8.3,1.3h-27V210h27c3.1,0,5.9,.4,8.4,1.3c2.6,.8,4.8,1.9,6.7,3.4c1.9,1.5,3.3,3.3,4.4,5.4c1,2.1,1.5,4.4,1.5,7c0,2.6,-.5,4.9,-1.6,7m20.3,-20.5c-2.2,-4.4,-5.1,-8.3,-8.9,-11.5c-3.8,-3.2,-8.4,-5.8,-13.6,-7.6c-5.3,-1.9,-11,-2.8,-17.2,-2.8H426.3V263h48.9c6.2,0,11.9,-.8,17.2,-2.5c5.2,-1.6,9.8,-4,13.6,-7.1c3.8,-3.1,6.7,-6.8,8.9,-11.1c2.2,-4.3,3.3,-9.1,3.3,-14.2c0,-5.2,-1.1,-10.1,-3.3,-14.5Z" class="g0_1" />
<path fill-rule="evenodd" d="M822.1,199.7L776.3,263h26.1l33.5,-47.3l11.7,16.9h-14l-13,18.3h39.8l8.4,12.1H895L850.4,199.7c-7.5,-11,-20.6,-10.7,-28.3,0Z" class="g0_1" />
<path fill-rule="evenodd" d="M639.3,224.8v19.9h-27c-3,0,-5.8,-.4,-8.4,-1.2c-2.6,-.9,-4.8,-2,-6.7,-3.5c-1.8,-1.5,-3.3,-3.3,-4.3,-5.4c-1.1,-2.1,-1.6,-4.4,-1.6,-7c0,-2.5,.6,-4.9,1.6,-7c1.1,-2,2.6,-3.9,4.4,-5.4c1.9,-1.6,4.2,-2.8,6.7,-3.7c2.6,-.8,5.3,-1.2,8.3,-1.2h22.5v-.1h26.5V191.7h-49c-6.2,0,-11.9,.8,-17.1,2.5c-5.3,1.7,-9.8,4.1,-13.6,7.1c-3.8,3.1,-6.8,6.8,-9,11.1c-2.2,4.3,-3.2,9.1,-3.2,14.3c0,5.2,1,10,3.2,14.4c2.2,4.5,5.2,8.3,9,11.5c3.8,3.3,8.3,5.8,13.6,7.7c5.2,1.8,10.9,2.7,17.1,2.7h49V224.8Z" class="g0_1" />
<path fill-rule="evenodd" d="M532.8,263h22V191.7H532.7Z" class="g0_1" />
<path fill-rule="evenodd" d="M291.8,207.1c-9.9,2.8,-1.1,11.4,3.9,14.5c5.1,3.1,11.7,3.1,17.4,2.5c7.6,-.7,12.7,-2.1,19.9,1.6c6.3,3.2,11.6,7.5,18.9,7.8c10.3,.4,22.9,-3.1,26.6,-13.4c.9,-2.5,1.3,-5.1,2,-7.7c.5,-1.9,2.1,-3.2,2.5,-4.8c.3,-1,-4.8,-13.9,-6.9,-13.2c.1,-.1,0,2.4,-.5,3c-.8,.8,-5,1.3,-6.1,1.3c-3.2,.2,-6.1,0,-9.4,.6c-8,1.4,-15.8,3.5,-23.7,5.1c-6.8,1.5,-14.3,3.9,-21.3,3.6c-5.9,-.3,-16.3,-2.9,-23.3,-.9m14.3,35.7c-7.4,-16.2,22.8,-8.5,30,-4.8c2.7,1.4,5.5,3.2,8.3,4.4c4.5,1.9,7.5,.3,12.1,.7c7.1,.7,3.6,13.5,2.8,18.3c-1,6.2,-2.3,19.2,-10.4,19.1c-8.4,-.2,-9,-8.8,-11.7,-14.6c-5.6,-12.5,-25.8,-11.5,-31.1,-23.1m74.4,-14.3c-1.9,5.2,-5.4,7.3,-9.1,10.6c-3.2,2.8,-2.7,7.3,-3.3,11.2c-1.2,9.1,-3.8,17.6,-8,25.7c.8,3.1,9.1,-4.3,9.9,-5.3c3,-3.7,6.1,-7.5,8.5,-11.6c3.7,-6.5,6.4,-13.8,7.3,-21.2c.2,-1.7,1.7,-21.1,-.8,-21.5c-1.8,-.2,-4.2,11.2,-4.5,12.1m-70.3,50c-4.1,-5.5,-6.5,-18.8,4,-19.3c6.7,-.3,12.7,4.6,16,10c2.1,3.7,3.3,8,6.3,11.1c2.4,2.5,6.2,2.7,2,4.7c-7.8,3.7,-23,.6,-28.3,-6.5m11,13.7c-2.4,-.4,-13.8,-2,-13.8,-5.4c.1,-3.6,14.4,1.1,16.6,1.6c7.8,1.5,15.7,-1,23.1,-3.5c5.3,-1.7,7.2,-2.8,11.8,-5.4c1.5,-.9,3,-1.7,3.4,-1.4c.2,.1,-1,1.1,-2.4,2.1c-5.5,4.1,-11.2,6.9,-17.7,9.2c-6.8,2.5,-13.9,4.2,-21,2.8M286.8,199.9c-15.4,5.7,-11.9,-11.9,-5.9,-19.2c6.1,-7.6,15.1,-5.6,23.8,-4.4c8.2,1.1,15.3,-1.2,23.4,-2.1c8.4,-1,12.2,4.3,15.7,11.1c.9,1.6,3.4,5.2,2.9,7c-.7,2.5,-6.7,3.1,-8.6,3.5c-8.2,1.9,-16.9,3.6,-25.4,3.2c-8.9,-.3,-17.3,-2.6,-25.9,.9m6.4,-28.4c-4.6,.4,-1.5,-2.5,.2,-3.3c4.9,-2.5,11.1,-3.7,16.4,-4.9c7.5,-1.7,15.1,-1.7,22.7,-.2c1.8,.4,12.1,1.9,12.9,4.1c.5,1.2,-10.6,1.4,-11.3,1.4c-4.8,.1,-9.2,.4,-13.9,1.2c-9.2,1.7,-17.7,1.8,-27,1.7m-32,31.2c6.2,-2.4,7.7,-5.8,10.4,-11.5c1.4,-3,8.3,-10.7,7.4,-13.2c-7.5,6.7,-14.2,15.3,-17.8,24.7m-3.6,24.5c1.5,6,3.5,3.2,5.2,-.6c1.1,-2.5,1.7,-5.5,3.2,-7.8c1.5,-2.4,3.5,-3,5.9,-4.3c4.4,-2.5,8.5,-9.3,.2,-9.8c-2.4,-.2,-12.6,5.9,-12.8,3c-2.2,6.3,-3.3,13,-1.7,19.5m6,29.4c-4,-7.7,-6.4,-15.9,-7.2,-24.6c.5,1.8,2,8.7,4.2,9c3,.5,6.5,-10.3,8.1,-12.5c8.3,-11.6,21.7,-2.9,27.8,6.3c5.4,8.1,7.6,26.9,-3.5,32.1c-5.2,2.5,-12.3,-1.2,-16.7,-4.1c-3.4,-2.3,-8,-7.4,-12.7,-6.2M311,291.9c-3.3,-2.3,-6.2,-4.6,-10.2,-5.4c-1.5,-.4,-4.8,.3,-5.5,-1.9c-.9,-2.5,3.7,-2,5.4,-2.3c3.2,-.3,4.4,.2,3.3,-3.2c-.6,-2.1,-3.4,-4.7,-5.6,-5.1c-2.8,-.5,-5.7,.8,-8.7,.1c-3.7,-.8,-6.5,-3,-9.6,-5c-2.6,-1.6,-8.4,-4.1,-7.1,1.2c.5,2.2,3.4,4.6,4.9,6c9,8.5,21.3,13,33.1,15.6M343.1,174.1c3.3,3.8,6.7,7.5,9.5,11.7c1.5,2.3,2.2,4.4,5.2,5.3c2.2,.7,13,1.1,14.5,-1.6c2,-3.6,-8.3,-11.5,-10.2,-13.1c-2.6,-2.2,-5.4,-4.8,-8.7,-5.9c-1.8,-.6,-4.7,-1,-6.5,-.7c-2.4,.4,-1.3,.5,-1.8,1c-1.2,1,-3.5,-.3,-3.3,1.3c.1,.9,.7,1.4,1.3,2Z" class="g0_1" />

</svg>
