<?xml version="1.0" encoding="utf-8"?>
<!-- Generator: Adobe Illustrator 19.0.0, SVG Export Plug-In . SVG Version: 6.00 Build 0)  -->
<svg version="1.1" id="Layer_1" xmlns="http://www.w3.org/2000/svg" xmlns:xlink="http://www.w3.org/1999/xlink" x="0px" y="0px"
	 viewBox="0 0 301.2 56.3" style="enable-background:new 0 0 301.2 56.3;" xml:space="preserve">
<style type="text/css">
	.st0{fill:#29CC71;}
</style>
<path id="XMLID_197_" class="st0" d="M11.7,29.9l1.1,6.7c1.2,0.5,2.6,0.7,3.9,0.7c1.8,0,3.4-0.4,4.7-1.2l0.2-6.4
	c-0.8-0.3-2.9-0.9-5.2-0.9C14.6,28.8,13,29.1,11.7,29.9z"/>
<path id="XMLID_198_" class="st0" d="M34.6,29.8l0.3,6.3c1.2,0.8,2.9,1.2,4.7,1.2c1.4,0,2.7-0.2,3.9-0.7l1-6.6
	c-1.3-0.7-2.9-1.1-4.7-1.1C37.5,28.9,35.4,29.5,34.6,29.8z"/>
<path id="XMLID_193_" class="st0" d="M28.2,0C12.6,0,0,12.6,0,28.2c0,15.6,12.6,28.2,28.2,28.2c15.5,0,28.2-12.6,28.2-28.2
	S43.7,0,28.2,0z M31.8,14.5c0.8-1.1,2.8-1.4,4.3-1.4c1.7,0,3.2,0.3,3.6,0.5c1.7,0.8,9.6,9.6,9.9,10l0.8,1.3l-5.3-0.5
	C43,21.5,38.4,16,37.3,16c-0.1,0-0.1,0-0.1,0c-1.7,1.1-2.9,1.4-3.7,1.4c-1,0-1.7-0.4-2-1C31.2,15.8,31.3,15.2,31.8,14.5z M7.7,23.1
	c0.3-0.4,8.2-9.1,9.9-10c0.4-0.2,1.9-0.5,3.6-0.5c1.5,0,3.5,0.2,4.3,1.4c0.5,0.6,0.6,1.3,0.3,1.9c-0.3,0.6-1.1,1-2,1
	c-0.8,0-2-0.2-3.7-1.4c0,0-0.1,0-0.1,0c-1.1,0-5.6,5.5-7.9,8.4v0.1l-5.3,0.5L7.7,23.1z M48.5,30.6l-1.8,9.1l-0.5,0.1
	c-2.5,0.5-5,0.7-7.3,0.7c-4.7,0-7.3-0.7-7.4-0.8H31l-0.1-7.3h-5.3l-0.1,7.3l-0.5-0.2c-0.1,0-2.8,0.8-7.4,0.8c-2.3,0-4.8-0.2-7.3-0.6
	L10,39.7l-1.7-9.1l-2.1,0.1v-4.6L6.4,26c0,0,4.6-0.5,9.3-0.5c5.7,0,8.9,0.8,9.9,2.3l0.1,0.2h5.2v-0.2c1-1.5,4.2-2.3,9.9-2.3
	c4.7,0,9.4,0.6,9.5,0.6h0.5v4.6L48.5,30.6z"/>
<g id="XMLID_170_">
	<path id="XMLID_171_" class="st0" d="M67.7,45.6V11.3h24.8v4.1H72.2v10.5h19v4h-19v11.7h21.1v4.1H67.7z"/>
	<path id="XMLID_173_" class="st0" d="M105.9,45.6l-9.5-24.9h4.5l5.3,14.9c0.6,1.6,1.1,3.3,1.6,5c0.4-1.3,0.9-2.9,1.6-4.7l5.5-15.2
		h4.3l-9.4,24.9H105.9z"/>
	<path id="XMLID_175_" class="st0" d="M140.1,37.6l4.4,0.5c-0.7,2.5-2,4.5-3.8,5.9s-4.2,2.1-7.1,2.1c-3.6,0-6.5-1.1-8.7-3.4
		s-3.2-5.4-3.2-9.4c0-4.2,1.1-7.4,3.2-9.7s5-3.5,8.4-3.5c3.3,0,6,1.1,8.2,3.4s3.2,5.5,3.2,9.6c0,0.2,0,0.6,0,1.1H126
		c0.2,2.7,0.9,4.8,2.3,6.3s3.1,2.2,5.2,2.2c1.5,0,2.9-0.4,4-1.2S139.4,39.4,140.1,37.6z M126.2,30.8h13.9c-0.2-2.1-0.7-3.7-1.6-4.7
		c-1.3-1.6-3.1-2.4-5.2-2.4c-1.9,0-3.6,0.6-4.9,1.9S126.4,28.6,126.2,30.8z"/>
	<path id="XMLID_178_" class="st0" d="M149.7,45.6V20.8h3.8v3.5c1.8-2.7,4.5-4.1,7.9-4.1c1.5,0,2.9,0.3,4.1,0.8s2.2,1.2,2.8,2.1
		s1.1,1.9,1.3,3.1c0.2,0.8,0.2,2.1,0.2,4.1v15.3h-4.2V30.5c0-1.7-0.2-3-0.5-3.9s-0.9-1.5-1.7-2s-1.8-0.8-2.9-0.8
		c-1.8,0-3.3,0.6-4.7,1.7s-2,3.3-2,6.5v13.6H149.7z"/>
	<path id="XMLID_180_" class="st0" d="M185.6,41.9l0.6,3.7c-1.2,0.2-2.2,0.4-3.2,0.4c-1.5,0-2.7-0.2-3.6-0.7s-1.4-1.1-1.8-1.9
		s-0.5-2.4-0.5-5V24h-3.1v-3.3h3.1v-6.2l4.2-2.5v8.7h4.2V24h-4.2v14.6c0,1.2,0.1,2,0.2,2.3s0.4,0.6,0.7,0.8s0.8,0.3,1.4,0.3
		C184.3,42,184.9,42,185.6,41.9z"/>
	<path id="XMLID_182_" class="st0" d="M206.4,32.2v-4l14.6,0v12.7c-2.2,1.8-4.5,3.1-6.9,4s-4.8,1.3-7.3,1.3c-3.4,0-6.4-0.7-9.2-2.2
		s-4.8-3.5-6.2-6.3s-2.1-5.8-2.1-9.2c0-3.3,0.7-6.5,2.1-9.4s3.4-5.1,6-6.5s5.6-2.1,9.1-2.1c2.5,0,4.7,0.4,6.7,1.2s3.6,1.9,4.7,3.4
		s2,3.3,2.6,5.6l-4.1,1.1c-0.5-1.8-1.2-3.1-1.9-4.1s-1.9-1.8-3.3-2.4s-3-0.9-4.7-0.9c-2.1,0-3.9,0.3-5.4,0.9s-2.7,1.5-3.7,2.5
		s-1.7,2.2-2.2,3.4c-0.9,2.1-1.3,4.4-1.3,6.9c0,3.1,0.5,5.6,1.6,7.7s2.6,3.6,4.6,4.6s4.2,1.5,6.4,1.5c2,0,3.9-0.4,5.8-1.1
		s3.3-1.6,4.3-2.4v-6.4H206.4z"/>
	<path id="XMLID_184_" class="st0" d="M244.1,37.6l4.4,0.5c-0.7,2.5-2,4.5-3.8,5.9s-4.2,2.1-7.1,2.1c-3.6,0-6.5-1.1-8.7-3.4
		s-3.2-5.4-3.2-9.4c0-4.2,1.1-7.4,3.2-9.7s5-3.5,8.4-3.5c3.3,0,6,1.1,8.2,3.4s3.2,5.5,3.2,9.6c0,0.2,0,0.6,0,1.1H230
		c0.2,2.7,0.9,4.8,2.3,6.3s3.1,2.2,5.2,2.2c1.5,0,2.9-0.4,4-1.2S243.5,39.4,244.1,37.6z M230.3,30.8h13.9c-0.2-2.1-0.7-3.7-1.6-4.7
		c-1.3-1.6-3.1-2.4-5.2-2.4c-1.9,0-3.6,0.6-4.9,1.9S230.4,28.6,230.3,30.8z"/>
	<path id="XMLID_187_" class="st0" d="M270.8,37.6l4.4,0.5c-0.7,2.5-2,4.5-3.8,5.9s-4.2,2.1-7.1,2.1c-3.6,0-6.5-1.1-8.7-3.4
		s-3.2-5.4-3.2-9.4c0-4.2,1.1-7.4,3.2-9.7s5-3.5,8.4-3.5c3.3,0,6,1.1,8.2,3.4s3.2,5.5,3.2,9.6c0,0.2,0,0.6,0,1.1h-18.6
		c0.2,2.7,0.9,4.8,2.3,6.3s3.1,2.2,5.2,2.2c1.5,0,2.9-0.4,4-1.2S270.2,39.4,270.8,37.6z M257,30.8h13.9c-0.2-2.1-0.7-3.7-1.6-4.7
		c-1.3-1.6-3.1-2.4-5.2-2.4c-1.9,0-3.6,0.6-4.9,1.9S257.1,28.6,257,30.8z"/>
	<path id="XMLID_190_" class="st0" d="M280.5,45.6V11.3h4.2v19.6l10-10.1h5.5l-9.5,9.2l10.5,15.7h-5.2l-8.2-12.7l-3,2.9v9.9H280.5z"
		/>
</g>
</svg>
