<?xml version="1.0" encoding="UTF-8"?>
<svg width="189px" height="108px" viewBox="0 0 189 108" version="1.1" xmlns="http://www.w3.org/2000/svg" xmlns:xlink="http://www.w3.org/1999/xlink">
    <!-- Generator: Sketch 45.2 (43514) - http://www.bohemiancoding.com/sketch -->
    <title>logo</title>
    <desc>Created with Sketch.</desc>
    <defs></defs>
    <g id="Page-1" stroke="none" stroke-width="1" fill="none" fill-rule="evenodd">
        <g id="logo" fill-rule="nonzero">
            <path d="M52.9826688,38.5328388 C55.9145161,35.6009916 57.5898574,31.622056 57.5898574,27.4337027 C57.5898574,23.2453494 55.9145161,19.2664138 52.9826688,16.3345665 C50.0508215,13.4027193 46.0718859,11.727378 41.8835326,11.727378 C37.6951794,11.727378 33.7162438,13.4027193 30.7843965,16.3345665 L4.60718859,42.5117744 C1.67534131,45.4436217 0,49.4225573 0,53.6109106 C0,57.7992638 1.67534131,61.7781994 4.60718859,64.7100467 L30.7843965,90.8872546 C33.7162438,93.8191019 37.6951794,95.4944432 41.8835326,95.4944432 C46.0718859,95.4944432 50.0508215,93.8191019 52.9826688,90.8872546 C55.9145161,87.9554073 57.5898574,83.9764717 57.5898574,79.7881185 C57.5898574,75.5997652 55.9145161,71.6208296 52.9826688,68.6889823 L41.8835326,57.5898462 L37.904597,53.6109106 L41.8835326,49.631975 L52.9826688,38.5328388 Z M26.8054609,57.3804285 L45.6530506,76.2280182 C46.7001389,77.2751065 47.1189742,78.5316125 47.1189742,79.9975361 C47.1189742,81.4634598 46.4907212,82.7199658 45.6530506,83.7670541 C43.7682916,85.651813 40.2081913,85.651813 38.3234324,83.7670541 L11.9368068,57.3804285 C11.0991361,56.3333402 10.4708832,55.0768342 10.4708832,53.6109106 C10.4708832,52.1449869 11.0991361,50.888481 11.9368068,49.8413926 L38.1140147,23.6641848 C39.161103,22.6170964 40.417609,22.1982611 41.8835326,22.1982611 C43.3494563,22.1982611 44.6059623,22.8265141 45.6530506,23.6641848 C46.7001389,24.7112731 47.1189742,25.967779 47.1189742,27.4337027 C47.1189742,28.8996263 46.4907212,30.1561323 45.6530506,31.2032206 L26.8054609,50.0508103 C24.7112843,51.9355693 24.7112843,55.2862519 26.8054609,57.3804285 Z" id="Shape" fill="#EFC403"></path>
            <path d="M157.6915,16.3345665 C154.759653,13.4027193 150.780717,11.727378 146.592364,11.727378 C142.404011,11.727378 138.425075,13.4027193 135.493228,16.3345665 C132.561381,19.2664138 130.886039,23.2453494 130.886039,27.4337027 C130.886039,31.622056 132.561381,35.6009916 135.493228,38.5328388 L146.592364,49.631975 L150.5713,53.6109106 L146.592364,57.5898462 L135.493228,68.6889823 C132.561381,71.6208296 130.886039,75.5997652 130.886039,79.7881185 C130.886039,83.9764717 132.561381,87.9554073 135.493228,90.8872546 C138.425075,93.8191019 142.404011,95.4944432 146.592364,95.4944432 C150.780717,95.4944432 154.759653,93.8191019 157.6915,90.8872546 L183.868708,64.7100467 C186.800556,61.7781994 188.475897,57.7992638 188.475897,53.6109106 C188.475897,49.4225573 186.800556,45.4436217 183.868708,42.5117744 L157.6915,16.3345665 Z M176.53909,57.3804285 L150.361882,83.5576364 C148.477123,85.4423954 144.917023,85.4423954 143.032264,83.5576364 C141.985176,82.5105481 141.56634,81.2540421 141.56634,79.7881185 C141.56634,78.3221948 142.194593,77.0656889 143.032264,76.0186005 L161.879854,57.1710109 C163.97403,55.0768342 163.97403,51.7261516 161.879854,49.8413926 L143.032264,30.993803 C141.985176,29.9467146 141.56634,28.6902087 141.56634,27.224285 C141.56634,25.7583614 142.194593,24.5018554 143.032264,23.4547671 C144.079352,22.4076788 145.335858,21.9888434 146.801782,21.9888434 C148.267706,21.9888434 149.524211,22.6170964 150.5713,23.4547671 L176.748508,49.631975 C177.795596,50.6790633 178.214431,51.9355693 178.214431,53.4014929 C178.214431,54.8674166 177.376761,56.3333402 176.53909,57.3804285 Z" id="Shape" fill="#EFC403"></path>
            <path d="M79.9975473,106.802997 C81.2540533,107.221832 82.7199769,107.43125 83.9764829,107.43125 C91.0966835,107.43125 97.3792134,102.614644 99.0545547,95.7038609 L119.368068,19.8946668 C120.415156,15.9157312 119.996321,11.5179603 117.902144,7.95786002 C115.807968,4.39775974 112.457285,1.67533012 108.268932,0.628241805 C107.012426,0.209406479 105.546502,-1.11841098e-05 104.289996,-1.11841098e-05 C97.1697957,-1.11841098e-05 90.8872658,4.81659507 89.2119245,11.727378 L68.8984112,87.536572 C67.8513229,91.5155076 68.2701582,95.9132785 70.3643348,99.4733788 C72.6679291,103.033479 76.0186117,105.546491 79.9975473,106.802997 Z M78.950459,90.2590016 L99.2639723,14.4498076 C99.8922253,12.1462133 101.986402,10.470872 104.289996,10.470872 C104.708832,10.470872 105.127667,10.470872 105.546502,10.6802896 C106.803008,11.099125 108.059514,11.9367956 108.687767,13.1933016 C109.31602,14.4498076 109.525438,15.9157312 109.106603,17.1722372 L88.7930892,92.9814313 C88.1648362,95.7038609 85.2329889,97.3792022 82.3011416,96.7509492 C81.0446356,96.3321139 79.7881297,95.4944432 79.1598767,94.2379372 C78.7410413,92.9814313 78.7410413,91.5155076 78.950459,90.2590016 Z" id="Shape" fill="#00D1B2"></path>
        </g>
    </g>
</svg>