<?xml version="1.0" encoding="UTF-8" standalone="no"?>
<svg
   xmlns:dc="http://purl.org/dc/elements/1.1/"
   xmlns:cc="http://creativecommons.org/ns#"
   xmlns:rdf="http://www.w3.org/1999/02/22-rdf-syntax-ns#"
   xmlns:svg="http://www.w3.org/2000/svg"
   xmlns="http://www.w3.org/2000/svg"
   viewBox="0 0 844.06665 673.45331"
   height="673.45331"
   width="844.06665"
   xml:space="preserve"
   id="svg2"
   version="1.1"><metadata
     id="metadata8"><rdf:RDF><cc:Work
         rdf:about=""><dc:format>image/svg+xml</dc:format><dc:type
           rdf:resource="http://purl.org/dc/dcmitype/StillImage" /></cc:Work></rdf:RDF></metadata><defs
     id="defs6" /><g
     transform="matrix(1.3333333,0,0,-1.3333333,0,673.45333)"
     id="g10"><g
       transform="scale(0.1)"
       id="g12"><path
         id="path14"
         style="fill:#ffffff;fill-opacity:1;fill-rule:nonzero;stroke:none"
         d="m 3243.79,3098.42 h -286.51 v -339.56 h 435.06 v 339.56 h -148.55" /><path
         id="path16"
         style="fill:#ffffff;fill-opacity:1;fill-rule:nonzero;stroke:none"
         d="m 3869.85,3098.42 h -339.56 v -339.56 h 339.56 v 339.56" /><path
         id="path18"
         style="fill:#ffffff;fill-opacity:1;fill-rule:nonzero;stroke:none"
         d="m 3289.49,3671.43 h -45.7 v -435.06 h 1008.06 v 244.06 H 3480.5 l -191.01,191" /><path
         id="path20"
         style="fill:#ffffff;fill-opacity:1;fill-rule:nonzero;stroke:none"
         d="m 3666.27,4709.37 c -131.3,131.27 -305.83,203.59 -491.46,203.59 -313.58,0 -584.11,-210.04 -668.05,-503.16 h 1336 c -32.42,112.35 -93.11,216.19 -176.49,299.57" /><path
         id="path22"
         style="fill:#ffffff;fill-opacity:1;fill-rule:nonzero;stroke:none"
         d="m 2479.77,3098.42 v -339.56 h 339.56 v 339.56 h -339.56" /><path
         id="path24"
         style="fill:#ffffff;fill-opacity:1;fill-rule:nonzero;stroke:none"
         d="M 3828.98,2620.91 H 2549.24 l 671.92,-257.74 z" /><path
         id="path26"
         style="fill:#ffffff;fill-opacity:1;fill-rule:nonzero;stroke:none"
         d="m 3002.99,3809.38 h 343.64 l 191,-191 h 332.22 v 244.06 H 2479.77 v -244.06 h 332.22 l 191,191" /><path
         id="path28"
         style="fill:#ffffff;fill-opacity:1;fill-rule:nonzero;stroke:none"
         d="M 4153.11,2608.51 3394.66,2286.9 c 96.78,-57.53 176.67,-140.63 230.18,-240.08 l 649.68,275.38 c 78.93,33.48 115.92,124.93 82.45,203.87 -33.49,78.93 -124.95,115.92 -203.86,82.44" /><path
         id="path30"
         style="fill:#ffffff;fill-opacity:1;fill-rule:nonzero;stroke:none"
         d="m 3251.01,2203.96 -1054.5,404.55 c -78.87,33.48 -170.38,-3.5 -203.86,-82.44 -33.27,-78.49 3.09,-169.34 81.09,-203.28 l 767.19,-283.3 c 107.18,-39.58 198.8,-114.93 259,-211.28 L 3497,1993.19 c -54.97,95.73 -141.88,170.84 -245.99,210.77" /><path
         id="path32"
         style="fill:#ffffff;fill-opacity:1;fill-rule:nonzero;stroke:none"
         d="m 3105.84,3671.43 h -45.71 l -191.01,-191 h -771.36 v -244.06 h 1008.08 v 435.06" /><path
         id="path34"
         style="fill:#ffffff;fill-opacity:1;fill-rule:nonzero;stroke:none"
         d="m 3716.87,4064.26 h -382.01 v 137.94 h 382.01 z m -702.11,0 h -382.01 v 137.94 h 382.01 z m 855.09,153.65 c 0,17.97 -0.78,36 -2.16,53.95 H 2481.93 c -1.38,-17.95 -2.16,-35.98 -2.16,-53.95 v -217.53 h 1390.08 v 217.53" /><path
         id="path36"
         style="fill:#100f0d;fill-opacity:1;fill-rule:nonzero;stroke:none"
         d="m 2632.75,4064.26 h 382.01 v 137.94 h -382.01 v -137.94" /><path
         id="path38"
         style="fill:#100f0d;fill-opacity:1;fill-rule:nonzero;stroke:none"
         d="m 3334.86,4064.26 h 382.01 v 137.94 h -382.01 v -137.94" /><path
         id="path40"
         style="fill:#100f0d;fill-opacity:1;fill-rule:nonzero;stroke:none"
         d="m 4274.52,2322.2 -649.68,-275.38 c -53.51,99.45 -133.4,182.55 -230.18,240.08 l 758.45,321.61 c 78.91,33.48 170.37,-3.51 203.86,-82.44 33.47,-78.94 -3.52,-170.39 -82.45,-203.87 z M 3099.93,1828.21 c -60.2,96.35 -151.82,171.7 -259,211.28 l -767.19,283.3 c -78,33.94 -114.36,124.79 -81.09,203.28 33.48,78.94 124.99,115.92 203.86,82.44 l 1054.5,-404.55 c 104.11,-39.93 191.02,-115.04 245.99,-210.77 z M 2097.76,3236.37 v 244.06 h 771.36 l 191.01,191 h 45.71 v -435.06 z m 382.01,626.07 h 1390.08 v -244.06 h -332.22 l -191,191 h -102.84 -137.95 -102.85 l -191,-191 h -332.22 z m 0,355.47 c 0,17.97 0.78,36 2.16,53.95 h 1385.76 c 1.38,-17.95 2.16,-35.98 2.16,-53.95 V 4000.38 H 2479.77 Z m 695.04,695.05 c 185.63,0 360.16,-72.32 491.46,-203.59 83.38,-83.38 144.07,-187.22 176.49,-299.57 h -1336 c 83.94,293.12 354.47,503.16 668.05,503.16 z m 355.48,-2154.1 v 339.56 h 339.56 v -339.56 z m -573.01,0 v 339.56 h 435.06 v -339.56 z m -477.51,0 v 339.56 h 339.56 v -339.56 z m 1349.21,-137.95 -607.82,-257.74 -671.92,257.74 z m 422.87,859.52 V 3236.37 H 3243.79 v 435.06 h 45.7 l 191.01,-191 z m -40.67,-721.68 v 0.11 H 4007.8 v 339.56 h 382 v 519.96 h -382 v 284.46 l 293.58,293.59 84.54,-84.53 97.54,97.55 -84.53,84.52 545.44,545.45 -97.53,97.54 -545.46,-545.45 -88.04,88.05 -97.54,-97.54 88.05,-88.05 -196.05,-196.05 v 119.99 c 0,34.74 -2.18,69.75 -6.47,104.04 -22.74,182.3 -107.08,354.52 -237.53,484.96 -157.35,157.34 -366.52,243.99 -588.99,243.99 -419.34,0 -774.67,-313.38 -826.51,-728.92 -4.3,-34.32 -6.48,-69.33 -6.48,-104.07 v -127.88 l -204.02,204.02 87.96,87.97 -97.54,97.54 -87.96,-87.97 -545.38,545.37 -97.53,-97.54 545.37,-545.37 -84.62,-84.6 97.54,-97.55 84.62,84.61 301.56,-301.56 v -276.57 h -382 v -519.96 h 382 v -339.56 h -203.38 v -0.12 c -115.12,0.87 -225.12,-66.4 -272.79,-178.82 -63.16,-148.97 6.64,-321.54 155.61,-384.72 l 771.87,-285.12 c 93.92,-34.68 171.52,-106.85 212.9,-198 l 27.62,-60.8 583.97,242.64 v 0.01 l 62.31,25.89 -0.18,0.45 648.62,274.93 c 148.96,63.18 218.76,235.75 155.6,384.72 -47.68,112.43 -157.67,179.71 -272.79,178.83" /><path
         id="path42"
         style="fill:#100f0d;fill-opacity:1;fill-rule:nonzero;stroke:none"
         d="M 489.246,574.922 C 462.234,529.09 425.828,492.66 379.992,465.66 c -45.836,-26.988 -95.765,-40.5 -149.762,-40.5 -46.195,0 -90.433,10.129 -132.7027,30.371 -42.2851,20.258 -74.7968,48.848 -97.53120625,85.809 L 150.289,643.672 c 19.188,-21.32 45.836,-31.973 79.941,-31.973 31.266,0 57.911,11 79.95,33.031 22.015,22.02 33.043,48.661 33.043,79.942 V 1221.38 H 529.754 V 724.672 c 0,-54 -13.512,-103.922 -40.508,-149.75" /><path
         id="path44"
         style="fill:#100f0d;fill-opacity:1;fill-rule:nonzero;stroke:none"
         d="m 1111.73,849.391 c -40.51,39.789 -60.76,89.879 -60.76,150.289 0,46.19 11.54,88.29 34.64,126.31 23.09,38 56.66,68.22 100.73,90.6 44.05,22.38 96.28,33.57 156.69,33.57 63.96,0 118.32,-12.44 163.08,-37.3 44.77,-24.89 82.08,-63.25 111.92,-115.12 L 1462.41,994.352 c -12.09,23.448 -28.25,41.038 -48.5,52.768 -20.25,11.71 -42.1,17.58 -65.55,17.58 -33.41,0 -60.06,-4.98 -79.94,-14.92 -19.91,-9.96 -29.85,-23.82 -29.85,-41.57 0,-14.23 11.54,-26.3 34.64,-36.241 23.09,-9.957 54.53,-19.188 94.34,-27.719 97.34,-22.75 169.11,-54.199 215.31,-94.328 46.18,-40.16 69.28,-97.891 69.28,-173.203 0,-46.91 -13.32,-89.547 -39.97,-127.918 -26.65,-38.371 -63.26,-68.582 -109.79,-90.602 -46.55,-22.008 -98.25,-33.039 -155.09,-33.039 -66.08,0 -126.67,14.922 -181.74,44.77 -55.07,29.84 -100.02,73.89 -134.83,132.172 l 163.08,105.519 c 10.66,-24.172 30.38,-46.359 59.16,-66.621 28.78,-20.25 60.57,-30.379 95.4,-30.379 34.81,0 62.89,6.75 84.21,20.258 21.31,13.492 31.97,30.191 31.97,50.09 0,22.023 -15.82,39.609 -47.43,52.769 -31.63,13.141 -76.93,25.051 -135.9,35.711 -72.49,13.492 -128.98,40.141 -169.48,79.942" /><path
         id="path46"
         style="fill:#100f0d;fill-opacity:1;fill-rule:nonzero;stroke:none"
         d="m 2645.02,578.109 c 31.26,12.43 59.32,32.86 84.21,61.289 l 111.92,-65.019 c -35.54,-49.738 -80.31,-87.047 -134.31,-111.91 -54.01,-24.867 -110.85,-37.309 -170.54,-37.309 -74.61,0 -143.55,18.488 -206.79,55.418 -63.25,36.953 -113.35,87.043 -150.29,150.301 -36.95,63.242 -55.42,132.172 -55.42,206.781 0,74.61 18.47,143.539 55.42,206.79 36.94,63.23 87.04,113.33 150.29,150.29 63.24,36.94 132.18,55.42 206.79,55.42 59.69,0 116.53,-12.44 170.54,-37.3 54,-24.89 98.77,-62.19 134.31,-111.92 l -111.92,-65.02 c -24.89,28.41 -52.95,48.85 -84.21,61.29 -31.28,12.43 -67.52,18.66 -108.72,18.66 -50.46,0 -97,-12.45 -139.63,-37.31 -42.64,-24.88 -76.4,-58.63 -101.26,-101.271 -24.88,-42.629 -37.31,-89.18 -37.31,-139.629 0,-50.461 12.43,-96.988 37.31,-139.629 24.86,-42.633 58.62,-76.39 101.26,-101.261 42.63,-24.879 89.17,-37.309 139.63,-37.309 41.2,0 77.44,6.211 108.72,18.648" /><path
         id="path48"
         style="fill:#100f0d;fill-opacity:1;fill-rule:nonzero;stroke:none"
         d="m 3557.63,1080.15 c -42.62,-25.22 -76.38,-59.33 -101.26,-102.322 -24.88,-42.996 -37.3,-89.719 -37.3,-140.168 0,-50.461 12.42,-97.18 37.3,-140.16 24.88,-43 58.64,-77.109 101.26,-102.328 42.64,-25.231 89.17,-37.84 139.64,-37.84 50.45,0 97,12.609 139.63,37.84 42.64,25.219 76.39,59.328 101.26,102.328 24.87,42.98 37.32,89.699 37.32,140.16 0,50.449 -12.45,97.172 -37.32,140.168 -24.87,42.992 -58.62,77.102 -101.26,102.322 -42.63,25.22 -89.18,37.84 -139.63,37.84 -50.47,0 -97,-12.62 -139.64,-37.84 z m 346.43,114.59 c 63.23,-36.96 113.33,-87.06 150.29,-150.29 36.94,-63.251 55.42,-132.18 55.42,-206.79 0,-74.609 -18.48,-143.539 -55.42,-206.781 -36.96,-63.258 -87.06,-113.348 -150.29,-150.301 -63.26,-36.93 -132.18,-55.418 -206.79,-55.418 -74.61,0 -143.54,18.488 -206.78,55.418 -63.26,36.953 -113.35,87.043 -150.3,150.301 -36.95,63.242 -55.42,132.172 -55.42,206.781 0,74.61 18.47,143.539 55.42,206.79 36.95,63.23 87.04,113.33 150.3,150.29 63.24,36.94 132.17,55.42 206.78,55.42 74.61,0 143.53,-18.48 206.79,-55.42" /><path
         id="path50"
         style="fill:#100f0d;fill-opacity:1;fill-rule:nonzero;stroke:none"
         d="m 5148.39,1221.38 h 134.29 V 453.941 H 5148.39 L 4765.72,995.422 V 453.941 h -134.3 v 767.439 h 134.3 l 382.67,-541.47 v 541.47" /><path
         id="path52"
         style="fill:#100f0d;fill-opacity:1;fill-rule:nonzero;stroke:none"
         d="M 5973.38,1087.09 V 900.551 h 304.85 V 775.84 H 5973.38 V 453.941 h -133.24 v 767.439 h 490.32 v -134.29 h -357.08" /><path
         id="path54"
         style="fill:#100f0d;fill-opacity:1;fill-rule:nonzero;stroke:none"
         d="m 385.879,31.7617 c -5.34,-9.7812 -12.727,-17.5312 -22.156,-23.22264 -9.434,-5.6875 -19.844,-8.5273412 -31.227,-8.5273412 -9.969,0 -19.266,1.7187512 -27.894,5.1992212 -8.633,3.46875 -15.879,8.66796 -21.754,15.62106 l 16.015,11.7266 c 3.203,-3.5586 7.61,-6.668 13.215,-9.3281 5.606,-2.6797 12.41,-4.0117 20.418,-4.0117 7.473,0 14.41,1.7304 20.817,5.2109 6.406,3.4687 11.57,8.5703 15.484,15.3398 3.91,6.7618 5.867,14.7696 5.867,24.0313 V 199.391 h 19.223 V 63.8008 c 0,-11.582 -2.668,-22.25 -8.008,-32.0391" /><path
         id="path56"
         style="fill:#100f0d;fill-opacity:1;fill-rule:nonzero;stroke:none"
         d="M 580.992,69.1406 537.488,173.23 492.914,69.1406 Z m 8.012,-19.2187 H 484.906 L 466.488,7.21094 H 445.402 L 527.879,199.391 h 19.219 L 627.703,7.21094 h -20.82 L 589.004,49.9219" /><path
         id="path58"
         style="fill:#100f0d;fill-opacity:1;fill-rule:nonzero;stroke:none"
         d="M 710.715,7.21094 639.184,199.391 H 660.27 L 720.324,37.6289 780.379,199.391 h 21.09 L 729.934,7.21094 h -19.219" /><path
         id="path60"
         style="fill:#100f0d;fill-opacity:1;fill-rule:nonzero;stroke:none"
         d="M 948.27,69.1406 904.762,173.23 860.188,69.1406 Z m 8.007,-19.2187 H 852.18 L 833.762,7.21094 H 812.68 L 895.152,199.391 h 19.223 L 994.977,7.21094 H 974.156 L 956.277,49.9219" /><path
         id="path62"
         style="fill:#100f0d;fill-opacity:1;fill-rule:nonzero;stroke:none"
         d="m 1066.91,117.969 c -9.87,7.301 -14.81,18.332 -14.81,33.113 0,10.668 2.71,20.227 8.14,28.688 5.43,8.449 13.03,15.031 22.82,19.75 9.78,4.71 21,7.082 33.63,7.082 29.36,0 50.18,-13 62.46,-38.981 l -17.35,-9.609 c -3.2,7.84 -8.45,14.679 -15.75,20.558 -7.3,5.871 -16.73,8.809 -28.29,8.809 -13.52,0 -24.6,-3.117 -33.23,-9.348 -8.63,-6.23 -13.04,-14.5 -13.21,-24.82 0,-7.473 2.4,-13.531 7.2,-18.152 4.81,-4.618 11.17,-8.278 19.09,-10.938 7.92,-2.672 17.92,-5.172 30.02,-7.473 12.1,-2.136 22.47,-5.117 31.1,-8.949 8.63,-3.828 15.66,-9.6599 21.09,-17.4802 5.42,-7.8282 8.14,-18.2383 8.14,-31.2305 0,-11.0274 -3.07,-21.0391 -9.21,-30.0274 -6.14,-8.9804 -14.55,-16.0507 -25.22,-21.22262 -10.68,-5.15625 -22.6,-7.7265612 -35.77,-7.7265612 -18.33,0 -33.86,4.5781212 -46.58,13.7382812 -12.72,9.1719 -21.66,20.5898 -26.82,34.2891 l 17.62,8.5507 c 1.95,-4.9804 5.29,-10.371 10.01,-16.1484 4.71,-5.793 10.98,-10.7695 18.81,-14.9492 7.83,-4.1836 16.82,-6.2734 26.96,-6.2734 10.14,0 19.08,1.8203 26.82,5.4726 7.75,3.6484 13.7,8.5391 17.89,14.6797 4.18,6.1406 6.27,12.8477 6.27,20.1602 0,11.9101 -5.29,20.9375 -15.88,27.0898 -10.59,6.1406 -26.03,11.3477 -46.31,15.6089 -16.55,3.211 -29.76,8.45 -39.64,15.739" /><path
         id="path64"
         style="fill:#100f0d;fill-opacity:1;fill-rule:nonzero;stroke:none"
         d="m 1400.02,8.80859 c -13.44,-5.86718 -28.07,-8.7968712 -43.91,-8.7968712 -18.69,0 -35.95,4.6289112 -51.78,13.8671812 -15.84,9.25 -28.38,21.8008 -37.64,37.6406 -9.25,15.8321 -13.87,33.1016 -13.87,51.7815 0,18.679 4.62,35.941 13.87,51.781 9.26,15.828 21.8,28.379 37.64,37.629 15.83,9.258 33.09,13.891 51.78,13.891 15.84,0 30.47,-2.942 43.91,-8.813 13.43,-5.879 24.77,-14.598 34.03,-26.16 l -17.35,-10.41 c -14.59,17.441 -34.52,26.16 -59.79,26.16 -14.94,0 -28.96,-3.918 -42.04,-11.75 -13.08,-7.828 -23.49,-18.238 -31.22,-31.231 -7.75,-12.988 -11.62,-26.687 -11.62,-41.097 0,-14.4221 3.87,-28.1213 11.62,-41.1096 7.73,-12.9805 18.14,-23.3906 31.22,-31.2305 13.08,-7.832 27.1,-11.7421 42.04,-11.7421 24.91,0 44.67,8.7226 59.25,26.1601 l 17.89,-10.4101 c -9.26,-11.5782 -20.6,-20.2891 -34.03,-26.16021" /><path
         id="path66"
         style="fill:#100f0d;fill-opacity:1;fill-rule:nonzero;stroke:none"
         d="m 1521.33,98.4883 h 41.91 c 8,0 15.12,1.9607 21.35,5.8707 6.22,3.922 11.03,9.032 14.41,15.352 3.38,6.32 5.08,12.848 5.08,19.617 0,6.762 -1.7,13.254 -5.08,19.481 -3.38,6.242 -8.19,11.351 -14.41,15.363 -6.23,4 -13.26,6 -21.09,6 h -42.17 z m 82.21,-91.27736 -47.51,72.05856 h -34.7 V 7.21094 h -19.22 V 199.391 h 61.39 c 10.85,0 20.86,-2.711 30.03,-8.141 9.16,-5.43 16.41,-12.73 21.76,-21.891 5.33,-9.168 8,-19.179 8,-30.031 0,-13.699 -4.18,-25.976 -12.55,-36.828 -8.36,-10.8516 -19.04,-17.9687 -32.02,-21.3516 l 48.84,-73.93746 h -24.02" /><path
         id="path68"
         style="fill:#100f0d;fill-opacity:1;fill-rule:nonzero;stroke:none"
         d="M 1698.56,7.21094 V 199.391 h 19.22 V 7.21094 h -19.22" /><path
         id="path70"
         style="fill:#100f0d;fill-opacity:1;fill-rule:nonzero;stroke:none"
         d="m 1816.53,98.4883 h 41.91 c 8,0 15.12,1.9607 21.35,5.8707 6.23,3.922 11.03,9.032 14.42,15.352 3.37,6.32 5.07,12.848 5.07,19.617 0,6.762 -1.7,13.254 -5.07,19.481 -3.39,6.242 -8.19,11.351 -14.42,15.363 -6.23,4 -13.26,6 -21.09,6 h -42.17 z m 72.2,92.7617 c 9.16,-5.43 16.42,-12.73 21.76,-21.891 5.33,-9.168 8,-19.179 8,-30.031 0,-10.859 -2.67,-20.867 -8,-30.027 -5.34,-9.172 -12.64,-16.4612 -21.89,-21.8791 -9.26,-5.4336 -19.31,-8.1524 -30.16,-8.1524 h -41.91 V 7.21094 h -19.21 V 199.391 h 61.38 c 10.86,0 20.87,-2.711 30.03,-8.141" /><path
         id="path72"
         style="fill:#100f0d;fill-opacity:1;fill-rule:nonzero;stroke:none"
         d="M 2061.56,180.172 V 7.21094 h -19.22 V 180.172 h -60.86 v 19.219 h 140.93 v -19.219 h -60.85" /><path
         id="path74"
         style="fill:#100f0d;fill-opacity:1;fill-rule:nonzero;stroke:none"
         d="m 2459.66,8.80859 c -13.44,-5.86718 -28.08,-8.7968712 -43.91,-8.7968712 -18.69,0 -35.95,4.6289112 -51.78,13.8671812 -15.84,9.25 -28.39,21.8008 -37.64,37.6406 -9.25,15.8321 -13.88,33.1016 -13.88,51.7815 0,18.679 4.63,35.941 13.88,51.781 9.25,15.828 21.8,28.379 37.64,37.629 15.83,9.258 33.09,13.891 51.78,13.891 15.83,0 30.47,-2.942 43.91,-8.813 13.43,-5.879 24.77,-14.598 34.03,-26.16 l -17.35,-10.41 c -14.59,17.441 -34.53,26.16 -59.79,26.16 -14.95,0 -28.96,-3.918 -42.04,-11.75 -13.08,-7.828 -23.49,-18.238 -31.23,-31.231 -7.74,-12.988 -11.61,-26.687 -11.61,-41.097 0,-14.4221 3.87,-28.1213 11.61,-41.1096 7.74,-12.9805 18.15,-23.3906 31.23,-31.2305 13.08,-7.832 27.09,-11.7421 42.04,-11.7421 24.91,0 44.66,8.7226 59.25,26.1601 l 17.89,-10.4101 c -9.26,-11.5782 -20.6,-20.2891 -34.03,-26.16021" /><path
         id="path76"
         style="fill:#100f0d;fill-opacity:1;fill-rule:nonzero;stroke:none"
         d="m 2603.25,176.031 c -12.9,-7.57 -23.13,-17.793 -30.69,-30.691 -7.57,-12.899 -11.34,-26.918 -11.34,-42.039 0,-15.1291 3.77,-29.1408 11.34,-42.0393 7.56,-12.9023 17.79,-23.1406 30.69,-30.7031 12.91,-7.5664 26.92,-11.3398 42.05,-11.3398 15.12,0 29.13,3.7734 42.03,11.3398 12.9,7.5625 23.13,17.8008 30.7,30.7031 7.56,12.8985 11.34,26.9102 11.34,42.0393 0,15.121 -3.78,29.14 -11.34,42.039 -7.57,12.898 -17.8,23.121 -30.7,30.691 -12.9,7.559 -26.91,11.348 -42.03,11.348 -15.13,0 -29.14,-3.789 -42.05,-11.348 z m 93.83,16.68 c 15.83,-9.25 28.38,-21.801 37.63,-37.629 9.25,-15.84 13.88,-33.102 13.88,-51.781 0,-18.6799 -4.63,-35.9494 -13.88,-51.7815 -9.25,-15.8398 -21.8,-28.3906 -37.63,-37.6406 -15.84,-9.23827 -33.1,-13.8671812 -51.78,-13.8671812 -18.69,0 -35.95,4.6289112 -51.79,13.8671812 -15.84,9.25 -28.38,21.8008 -37.63,37.6406 -9.26,15.8321 -13.88,33.1016 -13.88,51.7815 0,18.679 4.62,35.941 13.88,51.781 9.25,15.828 21.79,28.379 37.63,37.629 15.84,9.258 33.1,13.891 51.79,13.891 18.68,0 35.94,-4.633 51.78,-13.891" /><path
         id="path78"
         style="fill:#100f0d;fill-opacity:1;fill-rule:nonzero;stroke:none"
         d="m 2954.65,199.391 h 19.22 V 7.21094 h -19.22 L 2839.34,165.762 V 7.21094 h -19.22 V 199.391 h 19.22 L 2954.65,40.8398 V 199.391" /><path
         id="path80"
         style="fill:#100f0d;fill-opacity:1;fill-rule:nonzero;stroke:none"
         d="M 3070.75,180.172 V 112.91 h 85.95 V 93.6914 h -85.95 V 7.21094 h -19.22 V 199.391 h 117.98 v -19.219 h -98.76" /><path
         id="path82"
         style="fill:#100f0d;fill-opacity:1;fill-rule:nonzero;stroke:none"
         d="M 3261.59,180.172 V 112.91 h 85.95 V 93.6914 h -85.95 V 26.4297 h 98.5 V 7.21094 H 3242.38 V 199.391 h 117.17 v -19.219 h -97.96" /><path
         id="path84"
         style="fill:#100f0d;fill-opacity:1;fill-rule:nonzero;stroke:none"
         d="m 3457.51,98.4883 h 41.9 c 8.01,0 15.13,1.9607 21.36,5.8707 6.22,3.922 11.02,9.032 14.41,15.352 3.38,6.32 5.07,12.848 5.07,19.617 0,6.762 -1.69,13.254 -5.07,19.481 -3.39,6.242 -8.19,11.351 -14.41,15.363 -6.23,4 -13.26,6 -21.09,6 h -42.17 z m 82.2,-91.27736 -47.51,72.05856 h -34.69 V 7.21094 h -19.22 V 199.391 h 61.39 c 10.85,0 20.86,-2.711 30.02,-8.141 9.17,-5.43 16.42,-12.73 21.76,-21.891 5.34,-9.168 8.01,-19.179 8.01,-30.031 0,-13.699 -4.18,-25.976 -12.55,-36.828 -8.36,-10.8516 -19.04,-17.9687 -32.03,-21.3516 l 48.85,-73.93746 h -24.03" /><path
         id="path86"
         style="fill:#100f0d;fill-opacity:1;fill-rule:nonzero;stroke:none"
         d="M 3653.95,180.172 V 112.91 h 85.95 V 93.6914 h -85.95 V 26.4297 h 98.5 V 7.21094 H 3634.73 V 199.391 h 117.18 v -19.219 h -97.96" /><path
         id="path88"
         style="fill:#100f0d;fill-opacity:1;fill-rule:nonzero;stroke:none"
         d="m 3964.91,199.391 h 19.22 V 7.21094 h -19.22 L 3849.6,165.762 V 7.21094 h -19.22 V 199.391 h 19.22 L 3964.91,40.8398 V 199.391" /><path
         id="path90"
         style="fill:#100f0d;fill-opacity:1;fill-rule:nonzero;stroke:none"
         d="m 4203.12,8.80859 c -13.43,-5.86718 -28.07,-8.7968712 -43.9,-8.7968712 -18.69,0 -35.95,4.6289112 -51.78,13.8671812 -15.84,9.25 -28.39,21.8008 -37.64,37.6406 -9.26,15.8321 -13.88,33.1016 -13.88,51.7815 0,18.679 4.62,35.941 13.88,51.781 9.25,15.828 21.8,28.379 37.64,37.629 15.83,9.258 33.09,13.891 51.78,13.891 15.83,0 30.47,-2.942 43.9,-8.813 13.44,-5.879 24.78,-14.598 34.04,-26.16 l -17.36,-10.41 c -14.59,17.441 -34.52,26.16 -59.78,26.16 -14.95,0 -28.97,-3.918 -42.04,-11.75 -13.08,-7.828 -23.49,-18.238 -31.23,-31.231 -7.74,-12.988 -11.62,-26.687 -11.62,-41.097 0,-14.4221 3.88,-28.1213 11.62,-41.1096 7.74,-12.9805 18.15,-23.3906 31.23,-31.2305 13.07,-7.832 27.09,-11.7421 42.04,-11.7421 24.91,0 44.66,8.7226 59.26,26.1601 l 17.88,-10.4101 c -9.26,-11.5782 -20.6,-20.2891 -34.04,-26.16021" /><path
         id="path92"
         style="fill:#100f0d;fill-opacity:1;fill-rule:nonzero;stroke:none"
         d="M 4324.7,180.172 V 112.91 h 85.95 V 93.6914 H 4324.7 V 26.4297 h 98.49 V 7.21094 h -117.7 V 199.391 h 117.17 v -19.219 h -97.96" /><path
         id="path94"
         style="fill:#100f0d;fill-opacity:1;fill-rule:nonzero;stroke:none"
         d="M 4750.43,69.1406 4706.92,173.23 4662.34,69.1406 Z m 8.01,-19.2187 H 4654.33 L 4635.92,7.21094 h -21.09 l 82.48,192.18006 h 19.21 L 4797.14,7.21094 h -20.82 l -17.88,42.71096" /><path
         id="path96"
         style="fill:#100f0d;fill-opacity:1;fill-rule:nonzero;stroke:none"
         d="m 4883.08,98.4883 h 41.91 c 8.01,0 15.12,1.9607 21.35,5.8707 6.23,3.922 11.03,9.032 14.41,15.352 3.38,6.32 5.07,12.848 5.07,19.617 0,6.762 -1.69,13.254 -5.07,19.481 -3.38,6.242 -8.18,11.351 -14.41,15.363 -6.23,4 -13.26,6 -21.09,6 h -42.17 z m 82.21,-91.27736 -47.51,72.05856 h -34.7 V 7.21094 h -19.21 V 199.391 h 61.38 c 10.85,0 20.86,-2.711 30.03,-8.141 9.16,-5.43 16.42,-12.73 21.75,-21.891 5.34,-9.168 8.01,-19.179 8.01,-30.031 0,-13.699 -4.18,-25.976 -12.54,-36.828 -8.37,-10.8516 -19.05,-17.9687 -32.03,-21.3516 l 48.84,-73.93746 h -24.02" /><path
         id="path98"
         style="fill:#100f0d;fill-opacity:1;fill-rule:nonzero;stroke:none"
         d="m 5281.04,7.21094 h -20.82 L 5230.6,159.891 5175.08,7.21094 h -19.21 L 5100.35,159.891 5070.72,7.21094 h -20.82 l 37.64,192.18006 h 19.21 l 58.73,-160.4222 58.72,160.4222 h 19.21 L 5281.04,7.21094" /><path
         id="path100"
         style="fill:#100f0d;fill-opacity:1;fill-rule:nonzero;stroke:none"
         d="M 5369.92,180.172 V 112.91 h 85.95 V 93.6914 h -85.95 V 26.4297 h 98.5 V 7.21094 H 5350.71 V 199.391 h 117.17 v -19.219 h -97.96" /><path
         id="path102"
         style="fill:#100f0d;fill-opacity:1;fill-rule:nonzero;stroke:none"
         d="m 5680.88,199.391 h 19.22 V 7.21094 h -19.22 L 5565.57,165.762 V 7.21094 h -19.21 V 199.391 h 19.21 L 5680.88,40.8398 V 199.391" /><path
         id="path104"
         style="fill:#100f0d;fill-opacity:1;fill-rule:nonzero;stroke:none"
         d="M 5779.63,7.21094 V 199.391 h 19.22 V 7.21094 h -19.22" /><path
         id="path106"
         style="fill:#100f0d;fill-opacity:1;fill-rule:nonzero;stroke:none"
         d="M 6000.9,69.1406 5957.39,173.23 5912.82,69.1406 Z m 8,-19.2187 H 5904.81 L 5886.39,7.21094 h -21.08 L 5947.78,199.391 H 5967 L 6047.61,7.21094 h -20.81 l -17.9,42.71096" /></g></g></svg>