<svg xmlns="http://www.w3.org/2000/svg" width="2000" height="1900" viewBox="0 0 2000 1900">
  <metadata><?xpacket begin="﻿" id="W5M0MpCehiHzreSzNTczkc9d"?>
<x:xmpmeta xmlns:x="adobe:ns:meta/" x:xmptk="Adobe XMP Core 5.6-c140 79.160451, 2017/05/06-01:08:21        ">
   <rdf:RDF xmlns:rdf="http://www.w3.org/1999/02/22-rdf-syntax-ns#">
      <rdf:Description rdf:about=""/>
   </rdf:RDF>
</x:xmpmeta>
                                                                                                    
                                                                                                    
                                                                                                    
                                                                                                    
                                                                                                    
                                                                                                    
                                                                                                    
                                                                                                    
                                                                                                    
                                                                                                    
                                                                                                    
                                                                                                    
                                                                                                    
                                                                                                    
                                                                                                    
                                                                                                    
                                                                                                    
                                                                                                    
                                                                                                    
                                                                                                    
                           
<?xpacket end="w"?></metadata>
<defs>
    <style>
      .cls-1 {
        fill: #fff;
      }

      .cls-1, .cls-2 {
        fill-rule: evenodd;
      }
    </style>
  </defs>
  <path class="cls-1" d="M1410,1162h205v279H1410v180c43.9-.36,98.95-6.67,139,2,78.02,16.89,154.65,95.77,123,200-6.56,21.6-18.37,41.04-31,57-36.39,45.97-113.78,64.49-171,89-132.12,56.6-265.37,110.45-399,167q-66.495,27.495-133,55c-13.566,5.65-37.982,22.45-53,20-3.863-16.96-14.752-34.3-23-48-43.894-72.88-100.882-84.63-184-117q-123.488-45.99-247-92c-52.538-20.46-113.789-32.3-146-73-12.641-15.97-23.86-34.77-31-56-34.535-102.67,44.238-185.88,122-202,40.408-8.38,94.817-2.21,139-2V1441H310V1162H515V1015L354,856l-44,44h-3l-51-52v-2l44-43L9,512v-2l52-51,73,73L354,749l47-46,53,53-25,26-22,20,59,60,49,47c-0.729-53.331-1.864-107.969,8-152,33.576-149.877,122.514-260.13,250-316,72.873-31.936,187.909-57.8,290-32,43.53,11,85.22,25.437,120,46,110.51,65.345,187.88,162.051,220,306,9.34,41.846,7.13,93.715,7,144q51.99-51,104-102-3.495-4-7-8-19.995-20-40-40,26.49-26,53-52,23.505,23,47,46,25.5-25.5,51-51Q1738.5,578.512,1859,459l15,15q19.005,18.5,38,37v2L1621,803q22.005,22.5,44,45-25.5,26-51,52h-3q-22.005-22-44-44L1449,974q-19.5,19-39,38v150Z" transform="translate(39.5 -354.844)"/>
  <path class="cls-2" d="M1410,1162h205v279H1410v180c43.9-.36,98.95-6.67,139,2,78.02,16.89,154.65,95.77,123,200-6.56,21.6-18.37,41.04-31,57-36.39,45.97-113.78,64.49-171,89-132.12,56.6-265.37,110.45-399,167q-66.495,27.495-133,55c-13.566,5.65-37.982,22.45-53,20-3.863-16.96-14.752-34.3-23-48-43.894-72.88-100.882-84.63-184-117q-123.488-45.99-247-92c-52.538-20.46-113.789-32.3-146-73-12.641-15.97-23.86-34.77-31-56-34.535-102.67,44.238-185.88,122-202,40.408-8.38,94.817-2.21,139-2V1441H310V1162H515V1015L354,856l-44,44h-3l-51-52v-2l44-43L9,512v-2l52-51,73,73L354,749l47-46,53,53-25,26-22,20,59,60,49,47c-0.729-53.331-1.864-107.969,8-152,33.576-149.877,122.514-260.13,250-316,72.873-31.936,187.909-57.8,290-32,43.53,11,85.22,25.437,120,46,110.51,65.345,187.88,162.051,220,306,9.34,41.846,7.13,93.715,7,144q51.99-51,104-102-3.495-4-7-8-19.995-20-40-40,26.49-26,53-52,23.505,23,47,46,25.5-25.5,51-51Q1738.5,578.512,1859,459l15,15q19.005,18.5,38,37v2L1621,803q22.005,22.5,44,45-25.5,26-51,52h-3q-22.005-22-44-44L1449,974q-19.5,19-39,38v150ZM939,473l-36,4c-24.935,5.029-49.845,10.29-72,19-93.95,36.937-167.218,102.836-207,194-6.647,15.232-16.689,31.977-19,51h716C1263.69,582.526,1155.11,472.326,939,473ZM591,815q-0.5,71.993-1,144h745q-0.495-71.993-1-144H591Zm81,36H877v74H672V851Zm582,74H1048q0.495-37,1-74l205,1v73ZM590,1033v130H768q51.5-51,103-102h184q51.495,51,103,102h177V1033H590ZM385,1237v129H925V1135H900q-51,51-102,102H385Zm615-102v231h540V1237H1126l-102-102h-24ZM590,1440v181H772q-0.5-90.495-1-181H590Zm256,0v181h233V1440H846Zm308,0v181h181V1440H1154ZM397,1695c-22.687,9.44-41.229,10.56-55,28-29.812,37.76-24.065,94.03,12,121,32.377,24.21,94.505,36.2,135,52l318,118c32.741,14.37,67.752,40.47,89,67q13.5,18,27,36l212-88c-53.61-86.96-121.21-105.36-221-145q-155.985-59.49-312-119-58.993-22.5-118-45C456.948,1709.28,434.415,1694.95,397,1695Zm232,0q179.982,68.49,360,137l323-136v-1H629Zm883,0c-98.58,39.57-191.71,77.61-287,118q-71.49,30-143,60c0.33,0.67.67,1.33,1,2,44.81,16.04,100.26,83.8,121,126q122.49-51.99,245-104c41.13-17.52,93.54-30.44,127-57C1637.78,1790.96,1592.54,1693.86,1512,1695Z" transform="translate(39.5 -354.844)"/>
</svg>
